<?xml version="1.0" encoding="UTF-8"?>
<!DOCTYPE svg PUBLIC "-//W3C//DTD SVG 1.1//EN" "http://www.w3.org/Graphics/SVG/1.1/DTD/svg11.dtd">
<svg xmlns="http://www.w3.org/2000/svg" version="1.1" width="263px" height="289px" style="shape-rendering:geometricPrecision; text-rendering:geometricPrecision; image-rendering:optimizeQuality; fill-rule:evenodd; clip-rule:evenodd" xmlns:xlink="http://www.w3.org/1999/xlink">
<g><path style="opacity:0.006" fill="#fdfdfd" d="M 141.5,32.5 C 140.427,31.7494 140.26,30.7494 141,29.5C 143.74,30.2822 146.574,30.7822 149.5,31C 146.635,31.1829 143.969,31.6829 141.5,32.5 Z"/></g>
<g><path style="opacity:0.004" fill="#fdfefd" d="M 128.5,30.5 C 129.833,31.1667 129.833,31.1667 128.5,30.5 Z"/></g>
<g><path style="opacity:0.435" fill="#867e7d" d="M 139.5,28.5 C 139.216,30.4147 139.549,32.0813 140.5,33.5C 140.44,34.0431 140.107,34.3764 139.5,34.5C 138.207,32.3635 138.207,30.3635 139.5,28.5 Z"/></g>
<g><path style="opacity:1" fill="#1e1917" d="M 139.5,28.5 C 138.207,30.3635 138.207,32.3635 139.5,34.5C 140.107,34.3764 140.44,34.0431 140.5,33.5C 141.167,33.5 141.5,33.1667 141.5,32.5C 150.912,31.4206 159.245,33.7539 166.5,39.5C 166.539,40.5832 166.873,41.5832 167.5,42.5C 166.667,42.8333 165.833,43.1667 165,43.5C 161.196,42.5213 157.362,42.3546 153.5,43C 158.191,43.7719 162.858,44.6052 167.5,45.5C 167.389,46.1174 167.056,46.6174 166.5,47C 170.852,47.4189 171.185,48.0855 167.5,49C 168.641,49.7412 168.641,50.5745 167.5,51.5C 165.257,52.4742 162.924,52.8076 160.5,52.5C 156.627,50.5698 152.294,49.9031 147.5,50.5C 147.704,52.6854 148.37,54.6854 149.5,56.5C 146.758,54.4246 144.424,52.0913 142.5,49.5C 148.114,48.5674 153.781,48.4007 159.5,49C 155.019,47.0462 150.352,45.7128 145.5,45C 143.044,43.0875 143.378,41.4208 146.5,40C 149.882,39.8236 153.215,39.3236 156.5,38.5C 155.975,37.8076 155.308,37.3076 154.5,37C 149.5,36.3333 144.5,36.3333 139.5,37C 138.577,39.0408 138.244,41.2075 138.5,43.5C 136.609,46.1717 133.942,47.1717 130.5,46.5C 131.055,42.9878 130.388,39.9878 128.5,37.5C 124.019,36.3516 119.352,36.1849 114.5,37C 112.509,37.3736 110.842,38.207 109.5,39.5C 107.596,39.7376 106.262,40.7376 105.5,42.5C 103.833,43.8333 102.167,43.8333 100.5,42.5C 100.511,40.9826 101.177,39.8159 102.5,39C 110.432,33.0119 119.099,31.1786 128.5,33.5C 129.209,34.404 130.209,34.7373 131.5,34.5C 131.5,32.1667 131.5,29.8333 131.5,27.5C 131.363,19.3486 133.196,11.6819 137,4.5C 139.75,3.70889 142.583,3.70889 145.5,4.5C 143.196,12.3822 141.196,20.3822 139.5,28.5 Z"/></g>
<g><path style="opacity:1" fill="#3b5042" d="M 139.5,7.5 C 140.376,7.36912 141.043,7.70245 141.5,8.5C 139.837,11.6561 138.67,14.9894 138,18.5C 136.751,26.8247 135.584,35.158 134.5,43.5C 133.106,31.0336 134.773,19.0336 139.5,7.5 Z"/></g>
<g><path style="opacity:0.306" fill="#a29c9e" d="M 131.5,27.5 C 131.5,29.8333 131.5,32.1667 131.5,34.5C 130.209,34.7373 129.209,34.404 128.5,33.5C 130.06,31.8439 131.06,29.8439 131.5,27.5 Z"/></g>
<g><path style="opacity:1" fill="#649f6b" d="M 142.5,49.5 C 142.378,46.7079 141.044,44.7079 138.5,43.5C 138.244,41.2075 138.577,39.0408 139.5,37C 144.5,36.3333 149.5,36.3333 154.5,37C 155.308,37.3076 155.975,37.8076 156.5,38.5C 153.215,39.3236 149.882,39.8236 146.5,40C 143.378,41.4208 143.044,43.0875 145.5,45C 150.352,45.7128 155.019,47.0462 159.5,49C 153.781,48.4007 148.114,48.5674 142.5,49.5 Z"/></g>
<g><path style="opacity:1" fill="#42734d" d="M 128.5,37.5 C 125.302,36.9644 122.635,37.631 120.5,39.5C 116.833,39.5 113.167,39.5 109.5,39.5C 110.842,38.207 112.509,37.3736 114.5,37C 119.352,36.1849 124.019,36.3516 128.5,37.5 Z"/></g>
<g><path style="opacity:1" fill="#27864a" d="M 128.5,37.5 C 130.388,39.9878 131.055,42.9878 130.5,46.5C 129.292,45.7659 127.959,45.4326 126.5,45.5C 127.5,40.5 125.5,38.5 120.5,39.5C 122.635,37.631 125.302,36.9644 128.5,37.5 Z"/></g>
<g><path style="opacity:0.576" fill="#988e8f" d="M 100.5,42.5 C 102.167,43.8333 103.833,43.8333 105.5,42.5C 108.187,42.3359 110.854,42.5026 113.5,43C 109.468,43.773 105.468,44.6063 101.5,45.5C 100.737,44.7321 99.7375,44.2321 98.5,44C 99.0442,43.2828 99.7109,42.7828 100.5,42.5 Z"/></g>
<g><path style="opacity:0.29" fill="#a8a1a1" d="M 166.5,39.5 C 167.746,41.0084 169.08,42.5084 170.5,44C 169.263,44.2321 168.263,44.7321 167.5,45.5C 162.858,44.6052 158.191,43.7719 153.5,43C 157.362,42.3546 161.196,42.5213 165,43.5C 165.833,43.1667 166.667,42.8333 167.5,42.5C 166.873,41.5832 166.539,40.5832 166.5,39.5 Z"/></g>
<g><path style="opacity:1" fill="#406b45" d="M 120.5,39.5 C 125.5,38.5 127.5,40.5 126.5,45.5C 127.573,47.6531 127.573,49.6531 126.5,51.5C 126.586,50.5041 126.252,49.6708 125.5,49C 119.829,48.9269 114.162,48.9269 108.5,49C 114.119,47.012 119.786,45.1787 125.5,43.5C 124.293,41.4589 122.626,40.1255 120.5,39.5 Z"/></g>
<g><path style="opacity:1" fill="#190804" d="M 109.5,39.5 C 113.167,39.5 116.833,39.5 120.5,39.5C 122.626,40.1255 124.293,41.4589 125.5,43.5C 119.786,45.1787 114.119,47.012 108.5,49C 114.162,48.9269 119.829,48.9269 125.5,49C 126.252,49.6708 126.586,50.5041 126.5,51.5C 121.104,53.5959 118.104,57.5959 117.5,63.5C 120.425,63.5402 123.091,62.7068 125.5,61C 129.514,57.8361 132.514,54.0027 134.5,49.5C 137.573,57.0685 143.073,62.0685 151,64.5C 151.428,61.6783 150.928,59.0116 149.5,56.5C 148.37,54.6854 147.704,52.6854 147.5,50.5C 152.294,49.9031 156.627,50.5698 160.5,52.5C 156.787,51.7068 153.12,51.7068 149.5,52.5C 151.462,55.433 153.129,58.433 154.5,61.5C 154.5,63.5 154.5,65.5 154.5,67.5C 152.5,67.5 150.5,67.5 148.5,67.5C 143.303,64.6508 138.636,60.9841 134.5,56.5C 129.228,62.8006 122.562,66.4673 114.5,67.5C 114.19,63.3005 114.857,59.3005 116.5,55.5C 120.695,52.6396 120.028,51.3063 114.5,51.5C 108.044,52.6973 101.711,54.364 95.5,56.5C 95.5952,53.7277 96.9285,51.7277 99.5,50.5C 97.5405,49.4808 95.5405,49.4808 93.5,50.5C 93.5569,49.391 93.8902,48.391 94.5,47.5C 96.5994,46.3882 98.9327,45.7215 101.5,45.5C 105.468,44.6063 109.468,43.773 113.5,43C 110.854,42.5026 108.187,42.3359 105.5,42.5C 106.262,40.7376 107.596,39.7376 109.5,39.5 Z"/></g>
<g><path style="opacity:1" fill="#1d9c55" d="M 138.5,43.5 C 141.044,44.7079 142.378,46.7079 142.5,49.5C 144.424,52.0913 146.758,54.4246 149.5,56.5C 150.928,59.0116 151.428,61.6783 151,64.5C 143.073,62.0685 137.573,57.0685 134.5,49.5C 132.514,54.0027 129.514,57.8361 125.5,61C 123.091,62.7068 120.425,63.5402 117.5,63.5C 118.104,57.5959 121.104,53.5959 126.5,51.5C 127.573,49.6531 127.573,47.6531 126.5,45.5C 127.959,45.4326 129.292,45.7659 130.5,46.5C 133.942,47.1717 136.609,46.1717 138.5,43.5 Z"/></g>
<g><path style="opacity:1" fill="#ab313f" d="M 160.5,52.5 C 160.5,52.8333 160.5,53.1667 160.5,53.5C 158.167,53.5 155.833,53.5 153.5,53.5C 154.092,56.1272 154.425,58.7938 154.5,61.5C 153.129,58.433 151.462,55.433 149.5,52.5C 153.12,51.7068 156.787,51.7068 160.5,52.5 Z"/></g>
<g><path style="opacity:1" fill="#a42a38" d="M 116.5,55.5 C 115.666,54.2521 114.333,53.5854 112.5,53.5C 106.2,55.1594 99.8671,56.4928 93.5,57.5C 93.5,56.1667 93.5,54.8333 93.5,53.5C 89.4551,54.8641 85.4551,56.1974 81.5,57.5C 85.2042,54.6483 89.2042,52.315 93.5,50.5C 95.5405,49.4808 97.5405,49.4808 99.5,50.5C 96.9285,51.7277 95.5952,53.7277 95.5,56.5C 101.711,54.364 108.044,52.6973 114.5,51.5C 120.028,51.3063 120.695,52.6396 116.5,55.5 Z"/></g>
<g><path style="opacity:1" fill="#eb1c35" d="M 160.5,53.5 C 163.341,53.5597 166.007,54.2264 168.5,55.5C 171.567,57.115 174.9,58.4484 178.5,59.5C 195.478,70.4499 203.811,86.1165 203.5,106.5C 200.134,106.091 199.134,104.425 200.5,101.5C 201.622,99.7116 201.789,97.7116 201,95.5C 198.997,92.7785 196.997,90.1118 195,87.5C 194.667,88.1667 194.333,88.8333 194,89.5C 193.503,87.1902 193.337,84.8568 193.5,82.5C 192.5,82.5 191.5,82.5 190.5,82.5C 190.664,85.1873 190.497,87.854 190,90.5C 187.054,87.7999 184.554,88.2999 182.5,92C 184.576,93.8841 184.91,96.0508 183.5,98.5C 180.273,99.7815 177.273,99.2815 174.5,97C 175.094,96.5357 175.761,96.369 176.5,96.5C 178.06,96.5191 179.56,96.8524 181,97.5C 182.28,97.3865 183.113,96.7199 183.5,95.5C 181.13,92.0606 177.797,90.3939 173.5,90.5C 172.77,88.955 171.437,88.1216 169.5,88C 174.909,87.4366 179.242,84.9366 182.5,80.5C 181.833,80.1667 181.167,79.8333 180.5,79.5C 172.427,81.3671 164.427,83.3671 156.5,85.5C 154.291,84.0438 151.957,82.5438 149.5,81C 151.293,79.6898 153.126,79.1898 155,79.5C 155.311,78.2575 154.811,77.2575 153.5,76.5C 154.074,74.9411 154.74,73.4411 155.5,72C 154.5,71.3333 153.5,71.3333 152.5,72C 151.227,74.7994 149.227,76.6328 146.5,77.5C 146.758,73.6331 146.092,69.9664 144.5,66.5C 145.708,67.2341 147.041,67.5674 148.5,67.5C 150.5,67.5 152.5,67.5 154.5,67.5C 154.5,65.5 154.5,63.5 154.5,61.5C 154.425,58.7938 154.092,56.1272 153.5,53.5C 155.833,53.5 158.167,53.5 160.5,53.5 Z"/></g>
<g><path style="opacity:1" fill="#dc6372" d="M 198.5,65.5 C 196.523,64.8505 194.69,64.8505 193,65.5C 191.174,64.9896 191.007,64.1562 192.5,63C 190.866,62.5065 189.199,62.3398 187.5,62.5C 187.5,61.1667 187.5,59.8333 187.5,58.5C 184.455,58.5079 181.455,58.8413 178.5,59.5C 174.9,58.4484 171.567,57.115 168.5,55.5C 170.117,56.038 171.784,56.3713 173.5,56.5C 173.256,53.7374 171.923,51.5707 169.5,50C 180.575,52.5373 190.241,57.7039 198.5,65.5 Z"/></g>
<g><path style="opacity:1" fill="#eb1b33" d="M 119.5,73.5 C 118.277,75.772 116.277,76.9386 113.5,77C 116.331,79.3176 119.665,80.651 123.5,81C 120.167,82.6667 116.833,84.3333 113.5,86C 117.084,85.9508 119.084,86.4508 119.5,87.5C 117.167,87.5 114.833,87.5 112.5,87.5C 110.739,86.6873 109.072,85.6873 107.5,84.5C 104.992,82.7629 101.992,81.9296 98.5,82C 99.8333,81.6667 101.167,81.3333 102.5,81C 102.167,80.6667 101.833,80.3333 101.5,80C 97.8432,80.1078 94.1765,80.1078 90.5,80C 91.7112,79.1072 91.7112,78.2739 90.5,77.5C 88.8849,78.154 87.2182,78.654 85.5,79C 84.1667,79.6667 84.1667,80.3333 85.5,81C 84.1667,81.6667 82.8333,81.6667 81.5,81C 79.902,77.5963 77.902,75.4297 75.5,74.5C 81.3847,66.4079 89.0514,61.0746 98.5,58.5C 100.429,58.5396 102.262,58.8729 104,59.5C 104.333,58.8333 104.667,58.1667 105,57.5C 106,58.8333 107,58.8333 108,57.5C 108.499,62.4889 108.666,67.4889 108.5,72.5C 112.119,73.2436 115.785,73.577 119.5,73.5 Z"/></g>
<g><path style="opacity:1" fill="#9b2732" d="M 75.5,61.5 C 75.5,61.8333 75.5,62.1667 75.5,62.5C 72.681,65.075 69.681,67.4083 66.5,69.5C 66.5106,67.9826 67.1772,66.8159 68.5,66C 70.7343,64.2502 73.0676,62.7502 75.5,61.5 Z"/></g>
<g><path style="opacity:1" fill="#ba2232" d="M 148.5,67.5 C 147.041,67.5674 145.708,67.2341 144.5,66.5C 140.822,65.1661 137.155,63.8327 133.5,62.5C 132.261,62.9424 131.261,63.6091 130.5,64.5C 128.456,65.0312 126.789,66.1978 125.5,68C 121.703,68.4087 118.036,69.2421 114.5,70.5C 114.5,69.5 114.5,68.5 114.5,67.5C 122.562,66.4673 129.228,62.8006 134.5,56.5C 138.636,60.9841 143.303,64.6508 148.5,67.5 Z"/></g>
<g><path style="opacity:1" fill="#ed1b33" d="M 144.5,66.5 C 146.092,69.9664 146.758,73.6331 146.5,77.5C 149.227,76.6328 151.227,74.7994 152.5,72C 153.5,71.3333 154.5,71.3333 155.5,72C 154.74,73.4411 154.074,74.9411 153.5,76.5C 154.811,77.2575 155.311,78.2575 155,79.5C 153.126,79.1898 151.293,79.6898 149.5,81C 151.957,82.5438 154.291,84.0438 156.5,85.5C 153.64,86.2439 150.64,86.9106 147.5,87.5C 146.571,88.6888 146.238,90.0222 146.5,91.5C 145.88,93.9767 144.88,93.9767 143.5,91.5C 142.614,92.325 142.281,93.325 142.5,94.5C 144.167,94.5 145.833,94.5 147.5,94.5C 147.67,95.8221 147.337,96.9887 146.5,98C 147.428,98.3879 148.095,99.0546 148.5,100C 146.687,101.989 145.02,104.156 143.5,106.5C 144.04,107.748 144.707,108.915 145.5,110C 145.167,110.333 144.833,110.667 144.5,111C 137.788,110.946 131.122,111.113 124.5,111.5C 124.5,112.5 124.5,113.5 124.5,114.5C 121.583,115.417 118.583,116.084 115.5,116.5C 113.833,116.5 112.167,116.5 110.5,116.5C 110.571,113.861 111.571,111.694 113.5,110C 112.312,108.056 110.646,106.556 108.5,105.5C 110.953,103.08 113.953,101.914 117.5,102C 118.252,101.329 118.586,100.496 118.5,99.5C 118.481,97.9397 118.148,96.4397 117.5,95C 120.438,93.0816 121.104,90.5816 119.5,87.5C 119.084,86.4508 117.084,85.9508 113.5,86C 116.833,84.3333 120.167,82.6667 123.5,81C 119.665,80.651 116.331,79.3176 113.5,77C 116.277,76.9386 118.277,75.772 119.5,73.5C 124.962,72.7052 128.629,69.7052 130.5,64.5C 131.261,63.6091 132.261,62.9424 133.5,62.5C 137.155,63.8327 140.822,65.1661 144.5,66.5 Z"/></g>
<g><path style="opacity:0.486" fill="#9d9899" d="M 60.5,70.5 C 60.573,72.0269 59.9063,73.0269 58.5,73.5C 58.427,71.9731 59.0937,70.9731 60.5,70.5 Z"/></g>
<g><path style="opacity:0.498" fill="#95918f" d="M 209.5,72.5 C 210.906,72.9731 211.573,73.9731 211.5,75.5C 210.094,75.0269 209.427,74.0269 209.5,72.5 Z"/></g>
<g><path style="opacity:1" fill="#e81e35" d="M 75.5,74.5 C 77.902,75.4297 79.902,77.5963 81.5,81C 82.8333,81.6667 84.1667,81.6667 85.5,81C 84.1667,80.3333 84.1667,79.6667 85.5,79C 87.2182,78.654 88.8849,78.154 90.5,77.5C 91.7112,78.2739 91.7112,79.1072 90.5,80C 94.1765,80.1078 97.8432,80.1078 101.5,80C 101.833,80.3333 102.167,80.6667 102.5,81C 101.167,81.3333 99.8333,81.6667 98.5,82C 101.992,81.9296 104.992,82.7629 107.5,84.5C 102.611,84.2564 97.9447,83.2564 93.5,81.5C 92.5,81.8333 91.5,82.1667 90.5,82.5C 93.9679,84.3241 97.6346,85.3241 101.5,85.5C 102.29,86.4013 103.29,87.0679 104.5,87.5C 101.33,89.0023 97.9967,90.3356 94.5,91.5C 92.1478,92.566 89.8144,93.7327 87.5,95C 93.486,94.7601 99.486,94.7601 105.5,95C 106.833,95.3333 108.167,95.6667 109.5,96C 110.252,96.6708 110.586,97.5041 110.5,98.5C 109.833,98.5 109.5,98.8333 109.5,99.5C 104.792,100.328 104.625,100.994 109,101.5C 111.76,101.354 114.26,100.687 116.5,99.5C 116.833,99.5 117.167,99.5 117.5,99.5C 117.833,99.5 118.167,99.5 118.5,99.5C 118.586,100.496 118.252,101.329 117.5,102C 113.953,101.914 110.953,103.08 108.5,105.5C 110.646,106.556 112.312,108.056 113.5,110C 111.571,111.694 110.571,113.861 110.5,116.5C 112.167,116.5 113.833,116.5 115.5,116.5C 115.5,116.833 115.5,117.167 115.5,117.5C 113.801,117.62 112.135,117.954 110.5,118.5C 106.476,115.955 104.31,117.288 104,122.5C 102.961,123.71 101.794,124.71 100.5,125.5C 99.3326,124.228 98.4993,122.894 98,121.5C 98.9277,119.665 100.094,119.332 101.5,120.5C 102.711,119.726 102.711,118.893 101.5,118C 103.333,117.5 104.5,116.333 105,114.5C 106.183,115.731 107.349,115.731 108.5,114.5C 107.833,113.833 107.167,113.167 106.5,112.5C 103.833,111.833 101.167,111.167 98.5,110.5C 101.308,109.291 103.975,107.957 106.5,106.5C 104.51,105.127 102.343,104.127 100,103.5C 100.344,101.742 100.844,99.9091 101.5,98C 101.167,97.1667 100.833,96.3333 100.5,95.5C 95.4071,97.941 90.0737,99.1077 84.5,99C 82.5405,98.0691 80.5405,97.2357 78.5,96.5C 78.3076,94.195 77.9743,91.8616 77.5,89.5C 76.6816,92.1071 76.1816,94.7737 76,97.5C 73.3062,96.0542 72.4729,94.0542 73.5,91.5C 72.9017,90.2054 72.4017,88.8721 72,87.5C 70.1163,90.1777 69.6163,93.011 70.5,96C 69.0309,99.9299 67.8643,100.097 67,96.5C 66.7679,97.7375 66.2679,98.7375 65.5,99.5C 66.9597,94.9451 68.1264,90.2784 69,85.5C 71.0867,81.678 73.2534,78.0114 75.5,74.5 Z"/></g>
<g><path style="opacity:1" fill="#d6182b" d="M 116.5,55.5 C 114.857,59.3005 114.19,63.3005 114.5,67.5C 114.5,68.5 114.5,69.5 114.5,70.5C 118.036,69.2421 121.703,68.4087 125.5,68C 126.789,66.1978 128.456,65.0312 130.5,64.5C 128.629,69.7052 124.962,72.7052 119.5,73.5C 115.785,73.577 112.119,73.2436 108.5,72.5C 108.666,67.4889 108.499,62.4889 108,57.5C 107,58.8333 106,58.8333 105,57.5C 104.667,58.1667 104.333,58.8333 104,59.5C 102.262,58.8729 100.429,58.5396 98.5,58.5C 89.0514,61.0746 81.3847,66.4079 75.5,74.5C 73.2534,78.0114 71.0867,81.678 69,85.5C 68.1264,90.2784 66.9597,94.9451 65.5,99.5C 65.6747,101.621 65.3414,103.621 64.5,105.5C 63.5028,105.53 62.8361,105.03 62.5,104C 63.8946,102.279 64.5613,100.279 64.5,98C 63.9172,94.2488 63.9172,90.5822 64.5,87C 66.2267,84.3787 67.56,81.5453 68.5,78.5C 69.325,77.6143 70.325,77.281 71.5,77.5C 72.64,74.9752 73.3067,72.3085 73.5,69.5C 69.6611,68.95 69.6611,67.95 73.5,66.5C 74.324,68.7476 75.324,68.9142 76.5,67C 75.6198,65.6439 75.2865,64.1439 75.5,62.5C 75.5,62.1667 75.5,61.8333 75.5,61.5C 76.8021,59.1782 78.8021,57.8449 81.5,57.5C 85.4551,56.1974 89.4551,54.8641 93.5,53.5C 93.5,54.8333 93.5,56.1667 93.5,57.5C 99.8671,56.4928 106.2,55.1594 112.5,53.5C 114.333,53.5854 115.666,54.2521 116.5,55.5 Z"/></g>
<g><path style="opacity:1" fill="#ef5b6c" d="M 198.5,65.5 C 202.784,68.7524 206.118,72.7524 208.5,77.5C 208.872,82.2404 210.372,86.5737 213,90.5C 213.957,103.262 213.457,115.928 211.5,128.5C 211.5,129.5 211.5,130.5 211.5,131.5C 210.675,133.81 209.342,135.81 207.5,137.5C 206.417,137.539 205.417,137.873 204.5,138.5C 203.167,140.5 201.833,142.5 200.5,144.5C 199.5,143.833 198.5,143.167 197.5,142.5C 195.432,144.945 193.265,147.278 191,149.5C 190.517,150.448 190.351,151.448 190.5,152.5C 189.167,152.5 187.833,152.5 186.5,152.5C 187.833,150.833 189.167,149.167 190.5,147.5C 197.225,139.379 201.225,130.046 202.5,119.5C 203.485,115.366 203.818,111.032 203.5,106.5C 203.811,86.1165 195.478,70.4499 178.5,59.5C 181.455,58.8413 184.455,58.5079 187.5,58.5C 187.5,59.8333 187.5,61.1667 187.5,62.5C 189.199,62.3398 190.866,62.5065 192.5,63C 191.007,64.1562 191.174,64.9896 193,65.5C 194.69,64.8505 196.523,64.8505 198.5,65.5 Z"/></g>
<g><path style="opacity:1" fill="#2f1d1d" d="M 167.5,45.5 C 185.159,48.9856 199.159,57.9856 209.5,72.5C 209.427,74.0269 210.094,75.0269 211.5,75.5C 215.593,81.1047 217.926,87.438 218.5,94.5C 217.391,94.4431 216.391,94.1098 215.5,93.5C 213.93,87.7747 211.597,82.4413 208.5,77.5C 206.118,72.7524 202.784,68.7524 198.5,65.5C 190.241,57.7039 180.575,52.5373 169.5,50C 171.923,51.5707 173.256,53.7374 173.5,56.5C 171.784,56.3713 170.117,56.038 168.5,55.5C 166.007,54.2264 163.341,53.5597 160.5,53.5C 160.5,53.1667 160.5,52.8333 160.5,52.5C 162.924,52.8076 165.257,52.4742 167.5,51.5C 168.641,50.5745 168.641,49.7412 167.5,49C 171.185,48.0855 170.852,47.4189 166.5,47C 167.056,46.6174 167.389,46.1174 167.5,45.5 Z"/></g>
<g><path style="opacity:1" fill="#ae2b36" d="M 107.5,84.5 C 109.072,85.6873 110.739,86.6873 112.5,87.5C 108.833,86.8333 105.167,86.1667 101.5,85.5C 97.6346,85.3241 93.9679,84.3241 90.5,82.5C 91.5,82.1667 92.5,81.8333 93.5,81.5C 97.9447,83.2564 102.611,84.2564 107.5,84.5 Z"/></g>
<g><path style="opacity:1" fill="#300301" d="M 101.5,85.5 C 105.167,86.1667 108.833,86.8333 112.5,87.5C 113.997,88.3058 115.664,88.9724 117.5,89.5C 117.833,89.8333 118.167,90.1667 118.5,90.5C 117.833,90.8333 117.167,91.1667 116.5,91.5C 112.484,90.1557 108.484,88.8224 104.5,87.5C 103.29,87.0679 102.29,86.4013 101.5,85.5 Z"/></g>
<g><path style="opacity:1" fill="#d5263b" d="M 173.5,90.5 C 170.253,89.7485 166.919,89.2485 163.5,89C 164.056,88.6174 164.389,88.1174 164.5,87.5C 166.277,86.3995 168.277,85.5662 170.5,85C 169.833,84.8333 169.167,84.6667 168.5,84.5C 163.958,86.136 159.291,87.136 154.5,87.5C 149.832,86.8394 147.832,88.8394 148.5,93.5C 147.833,92.8333 147.167,92.1667 146.5,91.5C 146.238,90.0222 146.571,88.6888 147.5,87.5C 150.64,86.9106 153.64,86.2439 156.5,85.5C 164.427,83.3671 172.427,81.3671 180.5,79.5C 181.167,79.8333 181.833,80.1667 182.5,80.5C 179.242,84.9366 174.909,87.4366 169.5,88C 171.437,88.1216 172.77,88.955 173.5,90.5 Z"/></g>
<g><path style="opacity:1" fill="#330403" d="M 164.5,87.5 C 159.705,88.7653 155.038,90.432 150.5,92.5C 149.614,91.675 149.281,90.675 149.5,89.5C 151.553,89.5979 153.22,88.9313 154.5,87.5C 159.291,87.136 163.958,86.136 168.5,84.5C 169.167,84.6667 169.833,84.8333 170.5,85C 168.277,85.5662 166.277,86.3995 164.5,87.5 Z"/></g>
<g><path style="opacity:1" fill="#bc2231" d="M 66.5,69.5 C 64.2474,74.7989 61.4141,79.7989 58,84.5C 54.5386,100.644 54.7053,116.644 58.5,132.5C 56.1022,128.597 54.7689,124.264 54.5,119.5C 54.5312,114.644 54.1978,109.811 53.5,105C 54.1758,98.4348 55.1758,91.9348 56.5,85.5C 56.3433,84.1266 56.51,82.7932 57,81.5C 59.6499,77.0251 62.8166,73.0251 66.5,69.5 Z"/></g>
<g><path style="opacity:1" fill="#2a0200" d="M 117.5,99.5 C 117.167,99.5 116.833,99.5 116.5,99.5C 114.167,99.5 111.833,99.5 109.5,99.5C 109.5,98.8333 109.833,98.5 110.5,98.5C 114.445,97.5752 114.445,96.4085 110.5,95C 104.897,93.8763 99.2306,93.2096 93.5,93C 94.056,92.6174 94.3893,92.1174 94.5,91.5C 99.8828,90.1232 105.216,90.2898 110.5,92C 113.739,93.7364 116.073,96.2364 117.5,99.5 Z"/></g>
<g><path style="opacity:1" fill="#a62e37" d="M 94.5,91.5 C 94.3893,92.1174 94.056,92.6174 93.5,93C 99.2306,93.2096 104.897,93.8763 110.5,95C 114.445,96.4085 114.445,97.5752 110.5,98.5C 110.586,97.5041 110.252,96.6708 109.5,96C 108.167,95.6667 106.833,95.3333 105.5,95C 99.486,94.7601 93.486,94.7601 87.5,95C 89.8144,93.7327 92.1478,92.566 94.5,91.5 Z"/></g>
<g><path style="opacity:1" fill="#b32e3c" d="M 104.5,87.5 C 108.484,88.8224 112.484,90.1557 116.5,91.5C 117.167,91.1667 117.833,90.8333 118.5,90.5C 118.167,90.1667 117.833,89.8333 117.5,89.5C 115.664,88.9724 113.997,88.3058 112.5,87.5C 114.833,87.5 117.167,87.5 119.5,87.5C 121.104,90.5816 120.438,93.0816 117.5,95C 118.148,96.4397 118.481,97.9397 118.5,99.5C 118.167,99.5 117.833,99.5 117.5,99.5C 116.073,96.2364 113.739,93.7364 110.5,92C 105.216,90.2898 99.8828,90.1232 94.5,91.5C 97.9967,90.3356 101.33,89.0023 104.5,87.5 Z"/></g>
<g><path style="opacity:1" fill="#be2e3d" d="M 154.5,87.5 C 153.22,88.9313 151.553,89.5979 149.5,89.5C 149.281,90.675 149.614,91.675 150.5,92.5C 155.038,90.432 159.705,88.7653 164.5,87.5C 164.389,88.1174 164.056,88.6174 163.5,89C 166.919,89.2485 170.253,89.7485 173.5,90.5C 177.797,90.3939 181.13,92.0606 183.5,95.5C 183.113,96.7199 182.28,97.3865 181,97.5C 179.56,96.8524 178.06,96.5191 176.5,96.5C 171.085,93.5122 165.752,93.8455 160.5,97.5C 161.263,98.7193 162.263,99.7193 163.5,100.5C 159.182,101.54 154.849,101.54 150.5,100.5C 150.263,99.209 150.596,98.209 151.5,97.5C 151.5,96.1667 151.5,94.8333 151.5,93.5C 150.5,93.5 149.5,93.5 148.5,93.5C 147.832,88.8394 149.832,86.8394 154.5,87.5 Z"/></g>
<g><path style="opacity:1" fill="#2b0301" d="M 151.5,97.5 C 159.794,89.796 169.127,88.6294 179.5,94C 173.552,93.4736 167.552,93.4736 161.5,94C 159.221,94.4728 157.221,95.4728 155.5,97C 156.328,97.9147 157.328,98.5814 158.5,99C 157.333,99.1667 156.167,99.3333 155,99.5C 153.319,99.3917 152.152,98.7251 151.5,97.5 Z"/></g>
<g><path style="opacity:1" fill="#ec1b34" d="M 200.5,101.5 C 197.946,102.388 195.279,102.721 192.5,102.5C 192.285,104.179 192.952,105.179 194.5,105.5C 195.974,109.314 198.641,111.648 202.5,112.5C 202.5,114.833 202.5,117.167 202.5,119.5C 201.225,130.046 197.225,139.379 190.5,147.5C 187.423,149.705 184.09,151.372 180.5,152.5C 180.649,151.448 180.483,150.448 180,149.5C 176.972,151.937 174.139,151.604 171.5,148.5C 172.843,144.639 174.343,144.639 176,148.5C 177.158,148.002 177.991,147.169 178.5,146C 176.968,143.039 176.134,139.872 176,136.5C 175.329,135.748 174.496,135.414 173.5,135.5C 173.785,133.712 173.452,132.045 172.5,130.5C 170.135,128.256 168.135,125.756 166.5,123C 167.137,121.287 168.137,121.121 169.5,122.5C 170.833,121.833 170.833,121.167 169.5,120.5C 164.139,119.435 158.473,118.435 152.5,117.5C 152.423,116.25 151.756,115.417 150.5,115C 141.84,114.5 133.173,114.334 124.5,114.5C 124.5,113.5 124.5,112.5 124.5,111.5C 131.122,111.113 137.788,110.946 144.5,111C 144.833,110.667 145.167,110.333 145.5,110C 144.707,108.915 144.04,107.748 143.5,106.5C 145.02,104.156 146.687,101.989 148.5,100C 148.095,99.0546 147.428,98.3879 146.5,98C 147.337,96.9887 147.67,95.8221 147.5,94.5C 145.833,94.5 144.167,94.5 142.5,94.5C 142.281,93.325 142.614,92.325 143.5,91.5C 144.88,93.9767 145.88,93.9767 146.5,91.5C 147.167,92.1667 147.833,92.8333 148.5,93.5C 149.5,93.5 150.5,93.5 151.5,93.5C 151.5,94.8333 151.5,96.1667 151.5,97.5C 150.596,98.209 150.263,99.209 150.5,100.5C 154.849,101.54 159.182,101.54 163.5,100.5C 162.263,99.7193 161.263,98.7193 160.5,97.5C 165.752,93.8455 171.085,93.5122 176.5,96.5C 175.761,96.369 175.094,96.5357 174.5,97C 177.273,99.2815 180.273,99.7815 183.5,98.5C 184.91,96.0508 184.576,93.8841 182.5,92C 184.554,88.2999 187.054,87.7999 190,90.5C 190.497,87.854 190.664,85.1873 190.5,82.5C 191.5,82.5 192.5,82.5 193.5,82.5C 193.337,84.8568 193.503,87.1902 194,89.5C 194.333,88.8333 194.667,88.1667 195,87.5C 196.997,90.1118 198.997,92.7785 201,95.5C 201.789,97.7116 201.622,99.7116 200.5,101.5 Z"/></g>
<g><path style="opacity:1" fill="#d4172a" d="M 75.5,62.5 C 75.2865,64.1439 75.6198,65.6439 76.5,67C 75.324,68.9142 74.324,68.7476 73.5,66.5C 69.6611,67.95 69.6611,68.95 73.5,69.5C 73.3067,72.3085 72.64,74.9752 71.5,77.5C 70.325,77.281 69.325,77.6143 68.5,78.5C 67.56,81.5453 66.2267,84.3787 64.5,87C 63.9172,90.5822 63.9172,94.2488 64.5,98C 64.5613,100.279 63.8946,102.279 62.5,104C 62.8361,105.03 63.5028,105.53 64.5,105.5C 64.6783,117.009 67.345,127.842 72.5,138C 72.1667,138.333 71.8333,138.667 71.5,139C 72.9111,141.082 74.5778,142.916 76.5,144.5C 79.1136,148.654 82.447,152.32 86.5,155.5C 87.9501,156.85 88.6168,158.516 88.5,160.5C 86.2018,158.539 83.5351,157.539 80.5,157.5C 80.5858,156.504 80.2524,155.671 79.5,155C 77.0302,154.011 74.6968,152.845 72.5,151.5C 70.8807,147.387 69.0474,143.387 67,139.5C 66.6667,139.833 66.3333,140.167 66,140.5C 65.2276,139.151 64.0609,138.318 62.5,138C 61.6032,135.689 60.2699,133.856 58.5,132.5C 54.7053,116.644 54.5386,100.644 58,84.5C 61.4141,79.7989 64.2474,74.7989 66.5,69.5C 69.681,67.4083 72.681,65.075 75.5,62.5 Z"/></g>
<g><path style="opacity:1" fill="#ec1b34" d="M 100.5,125.5 C 99.0582,126.82 98.3915,128.486 98.5,130.5C 98.6716,131.492 98.3382,132.158 97.5,132.5C 93.6627,135.298 92.6627,138.964 94.5,143.5C 98.5997,145.645 102.933,146.978 107.5,147.5C 108.026,149.23 109.026,150.564 110.5,151.5C 109.889,154.694 107.889,156.361 104.5,156.5C 101.579,154.208 98.2455,152.708 94.5,152C 94.8333,151.667 95.1667,151.333 95.5,151C 92.2105,150.118 88.8772,149.452 85.5,149C 84.1667,147.667 82.8333,146.333 81.5,145C 80.1279,144.598 78.7946,144.098 77.5,143.5C 76.8933,143.624 76.56,143.957 76.5,144.5C 74.5778,142.916 72.9111,141.082 71.5,139C 71.8333,138.667 72.1667,138.333 72.5,138C 67.345,127.842 64.6783,117.009 64.5,105.5C 65.3414,103.621 65.6747,101.621 65.5,99.5C 66.2679,98.7375 66.7679,97.7375 67,96.5C 67.8643,100.097 69.0309,99.9299 70.5,96C 69.6163,93.011 70.1163,90.1777 72,87.5C 72.4017,88.8721 72.9017,90.2054 73.5,91.5C 72.4729,94.0542 73.3062,96.0542 76,97.5C 76.1816,94.7737 76.6816,92.1071 77.5,89.5C 77.9743,91.8616 78.3076,94.195 78.5,96.5C 80.5405,97.2357 82.5405,98.0691 84.5,99C 90.0737,99.1077 95.4071,97.941 100.5,95.5C 100.833,96.3333 101.167,97.1667 101.5,98C 100.844,99.9091 100.344,101.742 100,103.5C 102.343,104.127 104.51,105.127 106.5,106.5C 103.975,107.957 101.308,109.291 98.5,110.5C 101.167,111.167 103.833,111.833 106.5,112.5C 107.167,113.167 107.833,113.833 108.5,114.5C 107.349,115.731 106.183,115.731 105,114.5C 104.5,116.333 103.333,117.5 101.5,118C 102.711,118.893 102.711,119.726 101.5,120.5C 100.094,119.332 98.9277,119.665 98,121.5C 98.4993,122.894 99.3326,124.228 100.5,125.5 Z"/></g>
<g><path style="opacity:1" fill="#aa3139" d="M 109.5,99.5 C 111.833,99.5 114.167,99.5 116.5,99.5C 114.26,100.687 111.76,101.354 109,101.5C 104.625,100.994 104.792,100.328 109.5,99.5 Z"/></g>
<g><path style="opacity:1" fill="#9f2d39" d="M 56.5,85.5 C 55.1758,91.9348 54.1758,98.4348 53.5,105C 54.1978,109.811 54.5312,114.644 54.5,119.5C 52.0555,110.349 51.8888,101.016 54,91.5C 54.2401,89.1484 55.0735,87.1484 56.5,85.5 Z"/></g>
<g><path style="opacity:1" fill="#ca5b68" d="M 208.5,77.5 C 211.597,82.4413 213.93,87.7747 215.5,93.5C 217.693,105.696 216.359,117.363 211.5,128.5C 213.457,115.928 213.957,103.262 213,90.5C 210.372,86.5737 208.872,82.2404 208.5,77.5 Z"/></g>
<g><path style="opacity:1" fill="#b92f3d" d="M 69.5,105.5 C 70.3121,104.007 71.6455,103.34 73.5,103.5C 74.5,103.833 75.5,104.167 76.5,104.5C 73.9536,108.404 70.6202,111.07 66.5,112.5C 66.3398,110.801 66.5065,109.134 67,107.5C 67.4169,106.244 68.2502,105.577 69.5,105.5 Z"/></g>
<g><path style="opacity:1" fill="#390303" d="M 69.5,105.5 C 71.1368,104.782 72.8034,104.616 74.5,105C 72.6667,106.833 70.8333,108.667 69,110.5C 68.3603,108.735 68.5269,107.068 69.5,105.5 Z"/></g>
<g><path style="opacity:1" fill="#ca2a3b" d="M 200.5,101.5 C 199.134,104.425 200.134,106.091 203.5,106.5C 203.818,111.032 203.485,115.366 202.5,119.5C 202.5,117.167 202.5,114.833 202.5,112.5C 198.641,111.648 195.974,109.314 194.5,105.5C 192.952,105.179 192.285,104.179 192.5,102.5C 195.279,102.721 197.946,102.388 200.5,101.5 Z"/></g>
<g><path style="opacity:1" fill="#340000" d="M 194.5,105.5 C 195.721,104.535 197.054,104.702 198.5,106C 200.211,107.133 200.711,108.633 200,110.5C 198.296,108.627 196.463,106.96 194.5,105.5 Z"/></g>
<g><path style="opacity:1" fill="#c52d3d" d="M 124.5,114.5 C 133.173,114.334 141.84,114.5 150.5,115C 151.756,115.417 152.423,116.25 152.5,117.5C 140.177,114.911 127.844,114.911 115.5,117.5C 115.5,117.167 115.5,116.833 115.5,116.5C 118.583,116.084 121.583,115.417 124.5,114.5 Z"/></g>
<g><path style="opacity:1" fill="#797172" d="M 218.5,94.5 C 221.11,103.581 220.777,112.581 217.5,121.5C 217.756,119.208 217.423,117.041 216.5,115C 218.438,108.452 219.105,101.618 218.5,94.5 Z"/></g>
<g><path style="opacity:1" fill="#ca2f3c" d="M 115.5,117.5 C 108.57,120.137 102.904,124.47 98.5,130.5C 98.3915,128.486 99.0582,126.82 100.5,125.5C 101.794,124.71 102.961,123.71 104,122.5C 104.31,117.288 106.476,115.955 110.5,118.5C 112.135,117.954 113.801,117.62 115.5,117.5 Z"/></g>
<g><path style="opacity:1" fill="#cd2b3c" d="M 152.5,117.5 C 158.473,118.435 164.139,119.435 169.5,120.5C 170.833,121.167 170.833,121.833 169.5,122.5C 168.137,121.121 167.137,121.287 166.5,123C 168.135,125.756 170.135,128.256 172.5,130.5C 173.452,132.045 173.785,133.712 173.5,135.5C 174.623,137.979 174.623,140.312 173.5,142.5C 171.882,129.556 164.882,121.222 152.5,117.5 Z"/></g>
<g><path style="opacity:1" fill="#2d1b1c" d="M 215.5,93.5 C 216.391,94.1098 217.391,94.4431 218.5,94.5C 219.105,101.618 218.438,108.452 216.5,115C 217.423,117.041 217.756,119.208 217.5,121.5C 217.208,127.044 215.541,132.044 212.5,136.5C 211.549,135.081 211.216,133.415 211.5,131.5C 211.5,130.5 211.5,129.5 211.5,128.5C 216.359,117.363 217.693,105.696 215.5,93.5 Z"/></g>
<g><path style="opacity:1" fill="#230202" d="M 152.5,117.5 C 164.882,121.222 171.882,129.556 173.5,142.5C 165.425,145.522 157.425,148.522 149.5,151.5C 149.167,151.5 148.833,151.5 148.5,151.5C 144.019,152.229 139.519,152.896 135,153.5C 125.575,152.582 116.408,150.582 107.5,147.5C 103.709,145.951 99.876,144.284 96,142.5C 95.847,139.1 96.347,135.767 97.5,132.5C 98.3382,132.158 98.6716,131.492 98.5,130.5C 102.904,124.47 108.57,120.137 115.5,117.5C 127.844,114.911 140.177,114.911 152.5,117.5 Z"/></g>
<g><path style="opacity:1" fill="#781722" d="M 124.5,135.5 C 130.794,132.55 137.461,131.883 144.5,133.5C 149.692,135.993 154.692,138.993 159.5,142.5C 162.022,141.238 164.689,140.571 167.5,140.5C 167.808,138.076 167.474,135.743 166.5,133.5C 162.27,131.585 159.27,128.585 157.5,124.5C 155.929,123.691 154.262,123.357 152.5,123.5C 152.714,125.144 152.38,126.644 151.5,128C 147.848,128.499 144.182,128.665 140.5,128.5C 140.5,125.5 140.5,122.5 140.5,119.5C 136.5,119.5 132.5,119.5 128.5,119.5C 128.777,122.448 128.444,125.281 127.5,128C 124.167,128.667 120.833,128.667 117.5,128C 116.91,126.491 116.244,124.991 115.5,123.5C 110.498,125.999 105.832,128.999 101.5,132.5C 104.763,125.71 110.097,122.21 117.5,122C 118.38,123.356 118.714,124.856 118.5,126.5C 121.187,126.664 123.854,126.497 126.5,126C 127.435,123.619 127.768,121.119 127.5,118.5C 132.167,118.5 136.833,118.5 141.5,118.5C 141.5,121.167 141.5,123.833 141.5,126.5C 144.187,126.664 146.854,126.497 149.5,126C 149.988,123.824 150.988,121.991 152.5,120.5C 162.976,123.773 168.643,130.606 169.5,141C 166.274,142.464 162.941,143.631 159.5,144.5C 154.33,141.414 148.997,138.581 143.5,136C 137.196,134.252 130.862,134.086 124.5,135.5 Z"/></g>
<g><path style="opacity:0.059" fill="#eae8e9" d="M 144.5,119.5 C 145.833,119.5 147.167,119.5 148.5,119.5C 148.833,122.5 147.5,123.833 144.5,123.5C 144.5,122.167 144.5,120.833 144.5,119.5 Z"/></g>
<g><path style="opacity:0.009" fill="#e6e4e4" d="M 120.5,119.5 C 121.833,119.5 123.167,119.5 124.5,119.5C 124.5,120.833 124.5,122.167 124.5,123.5C 123.167,123.5 121.833,123.5 120.5,123.5C 120.5,122.167 120.5,120.833 120.5,119.5 Z"/></g>
<g><path style="opacity:1" fill="#8a0214" d="M 124.5,135.5 C 120.458,135.523 116.792,136.689 113.5,139C 111.432,139.687 109.432,139.52 107.5,138.5C 105.49,140.171 103.157,140.838 100.5,140.5C 100.833,137.833 101.167,135.167 101.5,132.5C 105.832,128.999 110.498,125.999 115.5,123.5C 116.244,124.991 116.91,126.491 117.5,128C 120.833,128.667 124.167,128.667 127.5,128C 128.444,125.281 128.777,122.448 128.5,119.5C 132.5,119.5 136.5,119.5 140.5,119.5C 140.5,122.5 140.5,125.5 140.5,128.5C 144.182,128.665 147.848,128.499 151.5,128C 152.38,126.644 152.714,125.144 152.5,123.5C 154.262,123.357 155.929,123.691 157.5,124.5C 159.27,128.585 162.27,131.585 166.5,133.5C 167.474,135.743 167.808,138.076 167.5,140.5C 164.689,140.571 162.022,141.238 159.5,142.5C 154.692,138.993 149.692,135.993 144.5,133.5C 137.461,131.883 130.794,132.55 124.5,135.5 Z"/></g>
<g><path style="opacity:0.651" fill="#a8a3a3" d="M 65.5,150.5 C 67.7488,151.08 69.4154,152.413 70.5,154.5C 68.2512,153.92 66.5846,152.587 65.5,150.5 Z"/></g>
<g><path style="opacity:1" fill="#322020" d="M 94.5,47.5 C 93.8902,48.391 93.5569,49.391 93.5,50.5C 89.2042,52.315 85.2042,54.6483 81.5,57.5C 78.8021,57.8449 76.8021,59.1782 75.5,61.5C 73.0676,62.7502 70.7343,64.2502 68.5,66C 67.1772,66.8159 66.5106,67.9826 66.5,69.5C 62.8166,73.0251 59.6499,77.0251 57,81.5C 56.51,82.7932 56.3433,84.1266 56.5,85.5C 55.0735,87.1484 54.2401,89.1484 54,91.5C 51.8888,101.016 52.0555,110.349 54.5,119.5C 54.7689,124.264 56.1022,128.597 58.5,132.5C 61.4607,140.087 66.1273,146.42 72.5,151.5C 74.3129,154.647 76.9796,156.647 80.5,157.5C 91.97,165.105 104.637,169.771 118.5,171.5C 119.5,171.5 120.5,171.5 121.5,171.5C 131.895,174.078 142.229,173.745 152.5,170.5C 171.128,168.104 187.294,160.437 201,147.5C 203.81,144.536 205.976,141.202 207.5,137.5C 209.342,135.81 210.675,133.81 211.5,131.5C 211.216,133.415 211.549,135.081 212.5,136.5C 203.944,153.211 190.611,164.378 172.5,170C 150.923,177.497 129.257,178.33 107.5,172.5C 105.485,171.076 103.152,170.41 100.5,170.5C 98.8984,168.926 96.8984,168.259 94.5,168.5C 89.749,167.29 85.4156,165.29 81.5,162.5C 81.0269,161.094 80.0269,160.427 78.5,160.5C 78.0269,159.094 77.0269,158.427 75.5,158.5C 73.246,157.876 71.5794,156.543 70.5,154.5C 69.4154,152.413 67.7488,151.08 65.5,150.5C 49.9558,131.285 45.4558,109.618 52,85.5C 53.5242,81.0407 55.6909,77.0407 58.5,73.5C 59.9063,73.0269 60.573,72.0269 60.5,70.5C 69.3964,59.3739 80.7298,51.7072 94.5,47.5 Z"/></g>
<g><path style="opacity:1" fill="#df5b6b" d="M 207.5,137.5 C 205.976,141.202 203.81,144.536 201,147.5C 187.294,160.437 171.128,168.104 152.5,170.5C 154.279,168.656 156.612,167.99 159.5,168.5C 164.892,165.735 170.558,163.735 176.5,162.5C 176.281,161.325 176.614,160.325 177.5,159.5C 180.805,157.525 183.805,155.191 186.5,152.5C 187.833,152.5 189.167,152.5 190.5,152.5C 190.351,151.448 190.517,150.448 191,149.5C 193.265,147.278 195.432,144.945 197.5,142.5C 198.5,143.167 199.5,143.833 200.5,144.5C 201.833,142.5 203.167,140.5 204.5,138.5C 205.417,137.873 206.417,137.539 207.5,137.5 Z"/></g>
<g><path style="opacity:1" fill="#b63035" d="M 149.5,143.5 C 151.912,143.694 152.912,145.027 152.5,147.5C 141.349,151.318 130.349,151.318 119.5,147.5C 129.53,148.998 139.53,148.832 149.5,147C 150.684,145.855 150.684,144.688 149.5,143.5 Z"/></g>
<g><path style="opacity:1" fill="#e91e36" d="M 173.5,135.5 C 174.496,135.414 175.329,135.748 176,136.5C 176.134,139.872 176.968,143.039 178.5,146C 177.991,147.169 177.158,148.002 176,148.5C 174.343,144.639 172.843,144.639 171.5,148.5C 174.139,151.604 176.972,151.937 180,149.5C 180.483,150.448 180.649,151.448 180.5,152.5C 184.09,151.372 187.423,149.705 190.5,147.5C 189.167,149.167 187.833,150.833 186.5,152.5C 183.805,155.191 180.805,157.525 177.5,159.5C 176.614,160.325 176.281,161.325 176.5,162.5C 170.558,163.735 164.892,165.735 159.5,168.5C 161.059,166.376 163.059,164.709 165.5,163.5C 168.467,161.768 171.634,160.435 175,159.5C 176.69,156.196 175.523,154.696 171.5,155C 172.38,156.356 172.714,157.856 172.5,159.5C 168.088,158.307 163.921,158.974 160,161.5C 158.806,160.57 157.473,159.903 156,159.5C 153.213,160.517 150.38,160.684 147.5,160C 148.672,159.581 149.672,158.915 150.5,158C 148.744,157.798 147.078,157.298 145.5,156.5C 146.025,155.808 146.692,155.308 147.5,155C 146.207,154.51 144.873,154.343 143.5,154.5C 145.072,153.313 146.739,152.313 148.5,151.5C 148.833,151.5 149.167,151.5 149.5,151.5C 158.201,150.049 166.201,147.049 173.5,142.5C 174.623,140.312 174.623,137.979 173.5,135.5 Z"/></g>
<g><path style="opacity:1" fill="#e81f28" d="M 149.5,143.5 C 150.684,144.688 150.684,145.855 149.5,147C 139.53,148.832 129.53,148.998 119.5,147.5C 118.316,146.312 118.316,145.145 119.5,144C 129.425,139.506 139.425,139.339 149.5,143.5 Z"/></g>
<g><path style="opacity:1" fill="#c13141" d="M 97.5,132.5 C 96.347,135.767 95.847,139.1 96,142.5C 99.876,144.284 103.709,145.951 107.5,147.5C 102.933,146.978 98.5997,145.645 94.5,143.5C 92.6627,138.964 93.6627,135.298 97.5,132.5 Z"/></g>
<g><path style="opacity:1" fill="#7b1d24" d="M 152.5,147.5 C 152.912,145.027 151.912,143.694 149.5,143.5C 139.425,139.339 129.425,139.506 119.5,144C 118.316,145.145 118.316,146.312 119.5,147.5C 117.345,147.628 115.345,147.128 113.5,146C 112.167,145.333 112.167,144.667 113.5,144C 128.071,134.717 142.071,135.384 155.5,146C 154.473,146.513 153.473,147.013 152.5,147.5 Z"/></g>
<g><path style="opacity:1" fill="#bd2334" d="M 58.5,132.5 C 60.2699,133.856 61.6032,135.689 62.5,138C 64.0609,138.318 65.2276,139.151 66,140.5C 66.3333,140.167 66.6667,139.833 67,139.5C 69.0474,143.387 70.8807,147.387 72.5,151.5C 66.1273,146.42 61.4607,140.087 58.5,132.5 Z"/></g>
<g><path style="opacity:1" fill="#7a1620" d="M 101.5,132.5 C 101.167,135.167 100.833,137.833 100.5,140.5C 103.157,140.838 105.49,140.171 107.5,138.5C 109.432,139.52 111.432,139.687 113.5,139C 116.792,136.689 120.458,135.523 124.5,135.5C 118.838,138.083 113.338,141.083 108,144.5C 104.853,143.338 101.686,142.338 98.5,141.5C 98.5275,138.084 99.5275,135.084 101.5,132.5 Z"/></g>
<g><path style="opacity:1" fill="#af313e" d="M 173.5,142.5 C 166.201,147.049 158.201,150.049 149.5,151.5C 157.425,148.522 165.425,145.522 173.5,142.5 Z"/></g>
<g><path style="opacity:1" fill="#a02835" d="M 72.5,151.5 C 74.6968,152.845 77.0302,154.011 79.5,155C 80.2524,155.671 80.5858,156.504 80.5,157.5C 76.9796,156.647 74.3129,154.647 72.5,151.5 Z"/></g>
<g><path style="opacity:1" fill="#ee1b33" d="M 110.5,151.5 C 118.267,152.58 125.934,154.247 133.5,156.5C 136.769,155.407 140.103,154.741 143.5,154.5C 144.873,154.343 146.207,154.51 147.5,155C 146.692,155.308 146.025,155.808 145.5,156.5C 147.078,157.298 148.744,157.798 150.5,158C 149.672,158.915 148.672,159.581 147.5,160C 150.38,160.684 153.213,160.517 156,159.5C 157.473,159.903 158.806,160.57 160,161.5C 163.921,158.974 168.088,158.307 172.5,159.5C 172.714,157.856 172.38,156.356 171.5,155C 175.523,154.696 176.69,156.196 175,159.5C 171.634,160.435 168.467,161.768 165.5,163.5C 161.575,163.112 157.908,163.779 154.5,165.5C 151.972,164.831 151.972,163.998 154.5,163C 151.812,162.608 149.145,162.108 146.5,161.5C 144.429,162.286 142.762,163.619 141.5,165.5C 138.299,164.077 134.966,163.077 131.5,162.5C 124.093,162.201 117.26,162.534 111,163.5C 109.221,161.983 109.721,161.149 112.5,161C 117.785,159.974 123.118,159.307 128.5,159C 124.312,158.268 120.312,157.101 116.5,155.5C 114.813,155.76 113.313,156.427 112,157.5C 110.951,156.483 109.784,156.316 108.5,157C 109.902,158.342 109.569,159.176 107.5,159.5C 105.527,158.669 103.527,158.502 101.5,159C 102.601,161.292 101.768,162.792 99,163.5C 98.3292,162.748 97.4959,162.414 96.5,162.5C 93.8333,161.833 91.1667,161.167 88.5,160.5C 88.6168,158.516 87.9501,156.85 86.5,155.5C 82.447,152.32 79.1136,148.654 76.5,144.5C 76.56,143.957 76.8933,143.624 77.5,143.5C 78.7946,144.098 80.1279,144.598 81.5,145C 82.8333,146.333 84.1667,147.667 85.5,149C 88.8772,149.452 92.2105,150.118 95.5,151C 95.1667,151.333 94.8333,151.667 94.5,152C 98.2455,152.708 101.579,154.208 104.5,156.5C 107.889,156.361 109.889,154.694 110.5,151.5 Z"/></g>
<g><path style="opacity:1" fill="#ea1c35" d="M 165.5,163.5 C 163.059,164.709 161.059,166.376 159.5,168.5C 156.612,167.99 154.279,168.656 152.5,170.5C 142.185,171.267 131.852,171.601 121.5,171.5C 120.5,171.5 119.5,171.5 118.5,171.5C 117.653,170.034 116.32,169.2 114.5,169C 109.173,168.543 104.006,167.376 99,165.5C 97.6898,164.87 96.8565,163.87 96.5,162.5C 97.4959,162.414 98.3292,162.748 99,163.5C 101.768,162.792 102.601,161.292 101.5,159C 103.527,158.502 105.527,158.669 107.5,159.5C 109.569,159.176 109.902,158.342 108.5,157C 109.784,156.316 110.951,156.483 112,157.5C 113.313,156.427 114.813,155.76 116.5,155.5C 120.312,157.101 124.312,158.268 128.5,159C 123.118,159.307 117.785,159.974 112.5,161C 109.721,161.149 109.221,161.983 111,163.5C 117.26,162.534 124.093,162.201 131.5,162.5C 134.966,163.077 138.299,164.077 141.5,165.5C 142.762,163.619 144.429,162.286 146.5,161.5C 149.145,162.108 151.812,162.608 154.5,163C 151.972,163.998 151.972,164.831 154.5,165.5C 157.908,163.779 161.575,163.112 165.5,163.5 Z"/></g>
<g><path style="opacity:1" fill="#d0293c" d="M 107.5,147.5 C 116.408,150.582 125.575,152.582 135,153.5C 139.519,152.896 144.019,152.229 148.5,151.5C 146.739,152.313 145.072,153.313 143.5,154.5C 140.103,154.741 136.769,155.407 133.5,156.5C 125.934,154.247 118.267,152.58 110.5,151.5C 109.026,150.564 108.026,149.23 107.5,147.5 Z"/></g>
<g><path style="opacity:0.545" fill="#8c8887" d="M 75.5,158.5 C 77.0269,158.427 78.0269,159.094 78.5,160.5C 76.9731,160.573 75.9731,159.906 75.5,158.5 Z"/></g>
<g><path style="opacity:0.475" fill="#9b9695" d="M 78.5,160.5 C 80.0269,160.427 81.0269,161.094 81.5,162.5C 79.9731,162.573 78.9731,161.906 78.5,160.5 Z"/></g>
<g><path style="opacity:0.788" fill="#766e6e" d="M 94.5,168.5 C 96.8984,168.259 98.8984,168.926 100.5,170.5C 98.1016,170.741 96.1016,170.074 94.5,168.5 Z"/></g>
<g><path style="opacity:1" fill="#af2a36" d="M 80.5,157.5 C 83.5351,157.539 86.2018,158.539 88.5,160.5C 91.1667,161.167 93.8333,161.833 96.5,162.5C 96.8565,163.87 97.6898,164.87 99,165.5C 104.006,167.376 109.173,168.543 114.5,169C 116.32,169.2 117.653,170.034 118.5,171.5C 104.637,169.771 91.97,165.105 80.5,157.5 Z"/></g>
<g><path style="opacity:0.973" fill="#766b6d" d="M 100.5,170.5 C 103.152,170.41 105.485,171.076 107.5,172.5C 104.848,172.59 102.515,171.924 100.5,170.5 Z"/></g>
<g><path style="opacity:1" fill="#ad3441" d="M 152.5,170.5 C 142.229,173.745 131.895,174.078 121.5,171.5C 131.852,171.601 142.185,171.267 152.5,170.5 Z"/></g>
<g><path style="opacity:0.314" fill="#afa4a4" d="M 56.5,193.5 C 56.5,193.167 56.5,192.833 56.5,192.5C 58.8568,192.337 61.1902,192.503 63.5,193C 64.056,193.383 64.3893,193.883 64.5,194.5C 61.9039,193.735 59.2372,193.401 56.5,193.5 Z"/></g>
<g><path style="opacity:0.129" fill="#dfdbdb" d="M 128.5,192.5 C 127.329,193.345 125.995,194.011 124.5,194.5C 125.183,192.824 126.517,192.157 128.5,192.5 Z"/></g>
<g><path style="opacity:0.655" fill="#a29696" d="M 194.5,192.5 C 188.516,193.074 182.516,193.407 176.5,193.5C 180.985,192.579 185.651,191.912 190.5,191.5C 192.045,191.511 193.378,191.844 194.5,192.5 Z"/></g>
<g><path style="opacity:1" fill="#594040" d="M 56.5,192.5 C 56.5,192.833 56.5,193.167 56.5,193.5C 53.4545,193.342 50.6212,194.009 48,195.5C 45.5301,193.513 42.6967,193.013 39.5,194C 37.8446,195.444 37.178,197.278 37.5,199.5C 34.4488,197.617 34.1155,195.45 36.5,193C 43.4402,191.91 50.1069,191.743 56.5,192.5 Z"/></g>
<g><path style="opacity:0.557" fill="#9e9090" d="M 84.5,193.5 C 86.1992,193.34 87.8659,193.506 89.5,194C 90.756,194.417 91.4226,195.25 91.5,196.5C 89.1454,195.341 86.8121,194.341 84.5,193.5 Z"/></g>
<g><path style="opacity:0.62" fill="#867374" d="M 217.5,193.5 C 221.265,192.226 224.931,192.559 228.5,194.5C 224.66,193.838 220.994,193.505 217.5,193.5 Z"/></g>
<g><path style="opacity:1" fill="#3c1b1d" d="M 84.5,193.5 C 86.8121,194.341 89.1454,195.341 91.5,196.5C 93.1375,200.11 94.4709,203.944 95.5,208C 95.4868,214.017 95.3201,220.184 95,226.5C 94.2086,227.745 93.7086,229.078 93.5,230.5C 83.0047,234.851 75.5047,231.518 71,220.5C 68.8197,211.924 69.9864,203.924 74.5,196.5C 75.8333,195.833 76.8333,194.833 77.5,193.5C 79.8333,192.167 82.1667,192.167 84.5,193.5 Z M 83.5,224.5 C 82.8333,223.833 82.1667,223.167 81.5,222.5C 81.1016,219.517 80.7683,216.517 80.5,213.5C 80.4336,209.421 81.4336,205.755 83.5,202.5C 83.7086,201.078 84.2086,199.745 85,198.5C 85.3392,201.036 85.8392,203.536 86.5,206C 85.9653,212.333 84.9653,218.499 83.5,224.5 Z"/></g>
<g><path style="opacity:1" fill="#3b1b1d" d="M 128.5,192.5 C 133.634,193.737 136.134,197.071 136,202.5C 136.751,211.868 137.585,221.201 138.5,230.5C 137.424,233.219 135.757,233.886 133.5,232.5C 133.446,230.368 132.446,229.035 130.5,228.5C 129.513,223.695 129.179,218.695 129.5,213.5C 129.664,210.813 129.497,208.146 129,205.5C 127.812,206.563 127.312,207.897 127.5,209.5C 126.943,214.165 125.61,218.498 123.5,222.5C 123.947,216.673 121.781,215.006 117,217.5C 116.235,217.43 115.735,217.097 115.5,216.5C 116.833,216.5 117.5,215.833 117.5,214.5C 119.462,207.609 121.796,200.942 124.5,194.5C 125.995,194.011 127.329,193.345 128.5,192.5 Z"/></g>
<g><path style="opacity:0.718" fill="#a9999a" d="M 64.5,194.5 C 66.2624,195.262 67.2624,196.596 67.5,198.5C 65.7376,197.738 64.7376,196.404 64.5,194.5 Z"/></g>
<g><path style="opacity:0.486" fill="#aa9f9e" d="M 77.5,193.5 C 76.8333,194.833 75.8333,195.833 74.5,196.5C 74.5,194.5 75.5,193.5 77.5,193.5 Z"/></g>
<g><path style="opacity:0.518" fill="#9c8f8d" d="M 106.5,193.5 C 107.906,193.973 108.573,194.973 108.5,196.5C 107.094,196.027 106.427,195.027 106.5,193.5 Z"/></g>
<g><path style="opacity:1" fill="#3d1c1e" d="M 217.5,193.5 C 220.994,193.505 224.66,193.838 228.5,194.5C 229.496,194.414 230.329,194.748 231,195.5C 232.399,198.363 233.399,201.363 234,204.5C 234.667,212.167 234.667,219.833 234,227.5C 233.112,231.526 230.612,233.526 226.5,233.5C 217.549,231.715 212.049,226.382 210,217.5C 208.764,209.683 210.097,202.35 214,195.5C 214.816,194.177 215.983,193.511 217.5,193.5 Z M 223.5,198.5 C 224.167,200.167 224.833,201.833 225.5,203.5C 225.468,209.189 225.134,214.855 224.5,220.5C 222.621,220.393 222.288,220.893 223.5,222C 222.934,222.995 222.267,223.828 221.5,224.5C 221.025,220.857 220.692,217.19 220.5,213.5C 220.315,209.859 220.981,206.526 222.5,203.5C 222.629,201.784 222.962,200.117 223.5,198.5 Z"/></g>
<g><path style="opacity:0.337" fill="#aaa1a0" d="M 105.5,193.5 C 103.167,193.5 100.833,193.5 98.5,193.5C 98.8222,199.358 98.4889,205.025 97.5,210.5C 97.5,204.5 97.5,198.5 97.5,192.5C 100.385,192.194 103.052,192.527 105.5,193.5 Z"/></g>
<g><path style="opacity:0.227" fill="#beb3b3" d="M 223.5,198.5 C 223.56,197.957 223.893,197.624 224.5,197.5C 225.466,199.396 225.799,201.396 225.5,203.5C 224.833,201.833 224.167,200.167 223.5,198.5 Z"/></g>
<g><path style="opacity:0.459" fill="#aba2a1" d="M 67.5,198.5 C 68.4345,199.568 68.7678,200.901 68.5,202.5C 65.8333,202.5 63.1667,202.5 60.5,202.5C 60.5,202.167 60.5,201.833 60.5,201.5C 62.8333,201.5 65.1667,201.5 67.5,201.5C 67.5,200.5 67.5,199.5 67.5,198.5 Z"/></g>
<g><path style="opacity:0.008" fill="#fcfdfc" d="M 44.5,203.5 C 44.8966,202.475 45.5632,202.308 46.5,203C 45.9056,203.464 45.2389,203.631 44.5,203.5 Z"/></g>
<g><path style="opacity:0.006" fill="#fdfdfd" d="M 60.5,202.5 C 60.631,203.239 60.4643,203.906 60,204.5C 59.3083,203.563 59.475,202.897 60.5,202.5 Z"/></g>
<g><path style="opacity:0.008" fill="#fcfdfc" d="M 184.5,202.5 C 185.833,203.167 185.833,203.167 184.5,202.5 Z"/></g>
<g><path style="opacity:0.01" fill="#fcfcfc" d="M 198.5,202.5 C 199.525,202.897 199.692,203.563 199,204.5C 198.536,203.906 198.369,203.239 198.5,202.5 Z"/></g>
<g><path style="opacity:1" fill="#381619" d="M 194.5,192.5 C 201.322,191.311 205.989,193.977 208.5,200.5C 207.473,202.024 205.973,202.691 204,202.5C 201.813,202.212 199.646,201.878 197.5,201.5C 197.645,211 196.645,220.333 194.5,229.5C 193.596,230.209 193.263,231.209 193.5,232.5C 190.763,232.599 188.096,232.265 185.5,231.5C 184.631,229.283 184.298,226.95 184.5,224.5C 184.992,216.894 185.992,209.394 187.5,202C 181.002,203.119 176.336,200.785 173.5,195C 174.244,193.961 175.244,193.461 176.5,193.5C 182.516,193.407 188.516,193.074 194.5,192.5 Z"/></g>
<g><path style="opacity:1" fill="#371618" d="M 170.5,226.5 C 170.325,228.621 170.659,230.621 171.5,232.5C 171.189,233.478 170.522,234.145 169.5,234.5C 164.65,233.323 161.983,230.323 161.5,225.5C 161.5,224.5 161.5,223.5 161.5,222.5C 158.287,222.19 155.287,222.523 152.5,223.5C 154.1,232.295 151.1,234.795 143.5,231C 142.923,228.976 142.923,226.809 143.5,224.5C 142.933,221.625 141.933,218.958 140.5,216.5C 140.5,215.167 140.5,213.833 140.5,212.5C 142.415,212.784 144.081,212.451 145.5,211.5C 145.45,205.68 146.284,200.014 148,194.5C 149.684,192.934 151.684,191.934 154,191.5C 159.3,191.803 163.3,194.136 166,198.5C 169.133,207.562 170.633,216.895 170.5,226.5 Z M 157.5,200.5 C 157.982,204.873 158.648,209.206 159.5,213.5C 157.803,211.695 156.97,209.361 157,206.5C 156.802,208.382 156.302,210.048 155.5,211.5C 155.5,208.5 155.5,205.5 155.5,202.5C 156.167,201.833 156.833,201.167 157.5,200.5 Z M 155.5,211.5 C 157.031,212.925 156.698,213.591 154.5,213.5C 154.328,212.508 154.662,211.842 155.5,211.5 Z"/></g>
<g><path style="opacity:0.01" fill="#f9f9f9" d="M 159.5,213.5 C 157.833,214.833 156.167,214.833 154.5,213.5C 156.698,213.591 157.031,212.925 155.5,211.5C 156.302,210.048 156.802,208.382 157,206.5C 156.97,209.361 157.803,211.695 159.5,213.5 Z"/></g>
<g><path style="opacity:0.004" fill="#eae6e6" d="M 157.5,200.5 C 156.833,201.167 156.167,201.833 155.5,202.5C 155.312,200.897 155.812,199.563 157,198.5C 157.464,199.094 157.631,199.761 157.5,200.5 Z"/></g>
<g><path style="opacity:0.043" fill="#c9c0c0" d="M 107.5,212.5 C 106.732,213.263 106.232,214.263 106,215.5C 105.827,221.348 105.327,227.015 104.5,232.5C 104.262,224.12 104.762,215.787 106,207.5C 106.608,209.154 107.108,210.821 107.5,212.5 Z"/></g>
<g><path style="opacity:1" fill="#341215" d="M 105.5,193.5 C 105.833,193.5 106.167,193.5 106.5,193.5C 106.427,195.027 107.094,196.027 108.5,196.5C 111.6,202.121 113.933,208.121 115.5,214.5C 115.5,215.167 115.5,215.833 115.5,216.5C 115.735,217.097 116.235,217.43 117,217.5C 121.781,215.006 123.947,216.673 123.5,222.5C 123.107,224.284 122.441,225.95 121.5,227.5C 120.094,227.973 119.427,228.973 119.5,230.5C 115.999,231.344 113.166,230.011 111,226.5C 109.52,221.898 108.354,217.231 107.5,212.5C 107.108,210.821 106.608,209.154 106,207.5C 104.762,215.787 104.262,224.12 104.5,232.5C 104.189,233.478 103.522,234.145 102.5,234.5C 100.618,233.907 98.7849,233.24 97,232.5C 96.3642,225.144 96.5309,217.811 97.5,210.5C 98.4889,205.025 98.8222,199.358 98.5,193.5C 100.833,193.5 103.167,193.5 105.5,193.5 Z"/></g>
<g><path style="opacity:0.149" fill="#c9c0c0" d="M 129.5,213.5 C 128.833,212.167 128.167,210.833 127.5,209.5C 127.312,207.897 127.812,206.563 129,205.5C 129.497,208.146 129.664,210.813 129.5,213.5 Z"/></g>
<g><path style="opacity:1" fill="#351416" d="M 56.5,193.5 C 59.2372,193.401 61.9039,193.735 64.5,194.5C 64.7376,196.404 65.7376,197.738 67.5,198.5C 67.5,199.5 67.5,200.5 67.5,201.5C 65.1667,201.5 62.8333,201.5 60.5,201.5C 57.7441,203.351 57.0774,205.851 58.5,209C 57.6002,215.479 56.6002,221.979 55.5,228.5C 54.6908,230.028 54.0241,231.694 53.5,233.5C 49.8084,234.029 46.6417,233.029 44,230.5C 44.3965,224.786 45.2298,219.119 46.5,213.5C 47.4731,211.052 47.8064,208.385 47.5,205.5C 47.5,204.167 47.5,202.833 47.5,201.5C 44.4816,201.665 41.4816,201.498 38.5,201C 37.944,200.617 37.6107,200.117 37.5,199.5C 37.178,197.278 37.8446,195.444 39.5,194C 42.6967,193.013 45.5301,193.513 48,195.5C 50.6212,194.009 53.4545,193.342 56.5,193.5 Z"/></g>
<g><path style="opacity:0.882" fill="#907f7f" d="M 47.5,205.5 C 47.8064,208.385 47.4731,211.052 46.5,213.5C 46.0618,213.565 45.7284,213.399 45.5,213C 46.1233,210.393 46.79,207.893 47.5,205.5 Z"/></g>
<g><path style="opacity:0.467" fill="#a89c9c" d="M 145.5,211.5 C 144.081,212.451 142.415,212.784 140.5,212.5C 140.5,213.833 140.5,215.167 140.5,216.5C 139.761,216.631 139.094,216.464 138.5,216C 139.227,214.601 139.727,213.101 140,211.5C 141.626,211.146 143.459,211.146 145.5,211.5 Z"/></g>
<g><path style="opacity:0.09" fill="#dbd6d6" d="M 115.5,214.5 C 116.167,214.5 116.833,214.5 117.5,214.5C 117.5,215.833 116.833,216.5 115.5,216.5C 115.5,215.833 115.5,215.167 115.5,214.5 Z"/></g>
<g><path style="opacity:0.004" fill="#fdfefd" d="M 106.5,217.5 C 107.833,218.167 107.833,218.167 106.5,217.5 Z"/></g>
<g><path style="opacity:0.006" fill="#fdfdfd" d="M 138.5,217.5 C 139.525,217.897 139.692,218.563 139,219.5C 138.536,218.906 138.369,218.239 138.5,217.5 Z"/></g>
<g><path style="opacity:0.561" fill="#a09191" d="M 152.5,223.5 C 155.287,222.523 158.287,222.19 161.5,222.5C 161.5,223.5 161.5,224.5 161.5,225.5C 158.855,223.758 155.855,223.091 152.5,223.5 Z"/></g>
<g><path style="opacity:0.263" fill="#bcb0b1" d="M 81.5,222.5 C 82.1667,223.167 82.8333,223.833 83.5,224.5C 83.44,225.043 83.1067,225.376 82.5,225.5C 81.6143,224.675 81.281,223.675 81.5,222.5 Z"/></g>
<g><path style="opacity:0.005" fill="#fdfdfd" d="M 153.5,224.5 C 156.001,224.511 156.168,225.178 154,226.5C 153.536,225.906 153.369,225.239 153.5,224.5 Z"/></g>
<g><path style="opacity:0.008" fill="#fcfdfc" d="M 158.5,224.5 C 159.833,225.167 159.833,225.167 158.5,224.5 Z"/></g>
<g><path style="opacity:0.749" fill="#8d7676" d="M 224.5,220.5 C 224.579,221.93 224.246,223.264 223.5,224.5C 222.743,225.773 222.077,225.773 221.5,224.5C 222.267,223.828 222.934,222.995 223.5,222C 222.288,220.893 222.621,220.393 224.5,220.5 Z"/></g>
<g><path style="opacity:0.965" fill="#8f7978" d="M 130.5,228.5 C 132.446,229.035 133.446,230.368 133.5,232.5C 132.026,231.564 131.026,230.23 130.5,228.5 Z"/></g>
<g><path style="opacity:0.718" fill="#9c9191" d="M 184.5,224.5 C 184.298,226.95 184.631,229.283 185.5,231.5C 184.275,230.848 183.608,229.681 183.5,228C 183.514,226.615 183.848,225.449 184.5,224.5 Z"/></g>
<g><path style="opacity:0.005" fill="#fdfdfd" d="M 93.5,230.5 C 95.8919,229.632 96.0586,230.299 94,232.5C 93.5357,231.906 93.369,231.239 93.5,230.5 Z"/></g>
<g><path style="opacity:0.251" fill="#bbb4b4" d="M 121.5,227.5 C 121.573,229.027 120.906,230.027 119.5,230.5C 119.427,228.973 120.094,227.973 121.5,227.5 Z"/></g>
<g><path style="opacity:0.82" fill="#9f9090" d="M 170.5,226.5 C 171.306,227.997 171.972,229.664 172.5,231.5C 172.376,232.107 172.043,232.44 171.5,232.5C 170.659,230.621 170.325,228.621 170.5,226.5 Z"/></g>
<g><path style="opacity:0.024" fill="#ddd9d9" d="M 55.5,228.5 C 55.9227,230.781 55.256,232.448 53.5,233.5C 54.0241,231.694 54.6908,230.028 55.5,228.5 Z"/></g>
<g><path style="opacity:0.941" fill="#877172" d="M 194.5,229.5 C 194.773,231.958 193.773,233.625 191.5,234.5C 189.081,234.086 187.081,233.086 185.5,231.5C 188.096,232.265 190.763,232.599 193.5,232.5C 193.263,231.209 193.596,230.209 194.5,229.5 Z"/></g>
<g><path style="opacity:0.004" fill="#fdfefd" d="M 98.5,234.5 C 99.8333,235.167 99.8333,235.167 98.5,234.5 Z"/></g>
<g><path style="opacity:0.004" fill="#fdfdfd" d="M 192.5,248.5 C 192.5,249.167 192.5,249.833 192.5,250.5C 191.609,249.89 190.609,249.557 189.5,249.5C 189.351,248.448 189.517,247.448 190,246.5C 190.708,247.381 191.542,248.047 192.5,248.5 Z"/></g>
<g><path style="opacity:0.006" fill="#f8f8f8" d="M 112.5,248.5 C 112.5,249.167 112.5,249.833 112.5,250.5C 111.662,250.842 111.328,251.508 111.5,252.5C 110.603,251.402 109.77,251.402 109,252.5C 108.333,250.833 108.333,249.167 109,247.5C 110.011,248.337 111.178,248.67 112.5,248.5 Z"/></g>
<g><path style="opacity:0.008" fill="#f4f2f2" d="M 192.5,248.5 C 195.47,248.44 198.47,248.44 201.5,248.5C 201.5,249.167 201.5,249.833 201.5,250.5C 201.5,250.833 201.5,251.167 201.5,251.5C 200.778,251.082 200.278,250.416 200,249.5C 198.474,254.627 197.474,254.627 197,249.5C 196.617,250.056 196.117,250.389 195.5,250.5C 195.179,248.952 194.179,248.285 192.5,248.5 Z"/></g>
<g><path style="opacity:0.007" fill="#fdfdfd" d="M 148.5,249.5 C 149.209,248.596 150.209,248.263 151.5,248.5C 151.326,254.574 150.326,254.907 148.5,249.5 Z"/></g>
<g><path style="opacity:1" fill="#6f5657" d="M 49.5,248.5 C 51.9118,248.694 52.9118,250.027 52.5,252.5C 50.139,252.326 47.8056,251.993 45.5,251.5C 47.0764,250.857 48.4097,249.857 49.5,248.5 Z"/></g>
<g><path style="opacity:0.004" fill="#fdfefd" d="M 58.5,249.5 C 59.8333,250.167 59.8333,250.167 58.5,249.5 Z"/></g>
<g><path style="opacity:0.999" fill="#694c4e" d="M 143.5,248.5 C 144.791,248.263 145.791,248.596 146.5,249.5C 145.833,250.5 145.167,251.5 144.5,252.5C 144.167,252.5 143.833,252.5 143.5,252.5C 142.053,251.115 141.053,251.448 140.5,253.5C 140.5,253.833 140.5,254.167 140.5,254.5C 139.566,253.432 139.232,252.099 139.5,250.5C 141.483,250.843 142.817,250.176 143.5,248.5 Z"/></g>
<g><path style="opacity:0.004" fill="#fdfefd" d="M 213.5,249.5 C 214.525,249.897 214.692,250.563 214,251.5C 213.536,250.906 213.369,250.239 213.5,249.5 Z"/></g>
<g><path style="opacity:1" fill="#856c6c" d="M 219.5,248.5 C 220.448,249.978 221.781,250.978 223.5,251.5C 220.075,251.367 219.742,252.033 222.5,253.5C 220.089,253.863 218.589,252.863 218,250.5C 217.51,251.793 217.343,253.127 217.5,254.5C 216.387,253.054 216.22,251.387 217,249.5C 217.671,248.748 218.504,248.414 219.5,248.5 Z"/></g>
<g><path style="opacity:1" fill="#5c4142" d="M 226.5,249.5 C 226.5,250.5 226.5,251.5 226.5,252.5C 225.209,252.737 224.209,252.404 223.5,251.5C 221.781,250.978 220.448,249.978 219.5,248.5C 222.012,247.133 224.345,247.466 226.5,249.5 Z"/></g>
<g><path style="opacity:0.004" fill="#fdfefd" d="M 89.5,250.5 C 90.8333,251.167 90.8333,251.167 89.5,250.5 Z"/></g>
<g><path style="opacity:1" fill="#523637" d="M 98.5,251.5 C 98.6495,252.552 98.4828,253.552 98,254.5C 97.6667,254.167 97.3333,253.833 97,253.5C 96.5026,256.146 96.3359,258.813 96.5,261.5C 95.8106,262.774 94.9772,262.774 94,261.5C 93.3333,257.167 93.3333,252.833 94,248.5C 96.5522,247.513 98.0522,248.513 98.5,251.5 Z"/></g>
<g><path style="opacity:1" fill="#593d3d" d="M 104.5,261.5 C 104.664,258.813 104.497,256.146 104,253.5C 102.961,254.244 102.461,255.244 102.5,256.5C 101.833,256.5 101.5,256.833 101.5,257.5C 100.761,257.631 100.094,257.464 99.5,257C 99.3423,255.413 100.009,253.913 101.5,252.5C 102.153,251.193 102.82,249.86 103.5,248.5C 104.651,247.269 105.817,247.269 107,248.5C 107.667,252.833 107.667,257.167 107,261.5C 106.023,262.774 105.189,262.774 104.5,261.5 Z"/></g>
<g><path style="opacity:0.004" fill="#fdfefd" d="M 178.5,251.5 C 177.833,250.167 177.833,250.167 178.5,251.5 Z"/></g>
<g><path style="opacity:0.373" fill="#beb3b3" d="M 75.5,248.5 C 75.5,252.833 75.5,257.167 75.5,261.5C 74.6762,257.688 74.1762,253.688 74,249.5C 72.9125,251.932 72.4125,251.598 72.5,248.5C 73.5,248.5 74.5,248.5 75.5,248.5 Z"/></g>
<g><path style="opacity:1" fill="#503333" d="M 80.5,252.5 C 81.1667,255.167 81.8333,255.167 82.5,252.5C 82.5,251.833 82.5,251.167 82.5,250.5C 83.6594,249.544 84.8261,248.544 86,247.5C 86.772,247.645 87.4387,247.978 88,248.5C 88.6667,252.833 88.6667,257.167 88,261.5C 87,262.833 86,262.833 85,261.5C 84.8019,259.618 84.3019,257.952 83.5,256.5C 82.7777,257.551 81.7777,258.218 80.5,258.5C 79.6618,258.158 79.3284,257.492 79.5,256.5C 79.6309,255.624 79.2975,254.957 78.5,254.5C 77.5258,256.743 77.1924,259.076 77.5,261.5C 76.6043,262.506 75.9377,262.506 75.5,261.5C 75.5,257.167 75.5,252.833 75.5,248.5C 75.8966,247.475 76.5632,247.308 77.5,248C 78.8825,249.271 79.8825,250.771 80.5,252.5 Z"/></g>
<g><path style="opacity:0.004" fill="#fdfefd" d="M 82.5,250.5 C 81.8333,249.167 81.8333,249.167 82.5,250.5 Z"/></g>
<g><path style="opacity:1" fill="#694d4e" d="M 117.5,250.5 C 117.786,252.933 118.452,252.933 119.5,250.5C 120.167,250.5 120.5,250.167 120.5,249.5C 121.623,246.959 122.956,246.959 124.5,249.5C 121.604,252.962 120.104,256.962 120,261.5C 116.436,263.1 115.269,262.1 116.5,258.5C 116.058,257.261 115.391,256.261 114.5,255.5C 114.107,253.716 113.441,252.05 112.5,250.5C 112.5,249.833 112.5,249.167 112.5,248.5C 113.251,247.427 114.251,247.26 115.5,248C 116.066,248.995 116.733,249.828 117.5,250.5 Z M 117.5,250.5 C 118.167,250.5 118.833,250.5 119.5,250.5C 118.452,252.933 117.786,252.933 117.5,250.5 Z"/></g>
<g><path style="opacity:0.004" fill="#f4f2f2" d="M 120.5,249.5 C 120.5,250.167 120.167,250.5 119.5,250.5C 118.833,250.5 118.167,250.5 117.5,250.5C 117.369,249.761 117.536,249.094 118,248.5C 118.671,249.252 119.504,249.586 120.5,249.5 Z"/></g>
<g><path style="opacity:0.004" fill="#fdfefd" d="M 178.5,251.5 C 179.525,251.897 179.692,252.563 179,253.5C 178.536,252.906 178.369,252.239 178.5,251.5 Z"/></g>
<g><path style="opacity:0.494" fill="#938383" d="M 211.5,248.5 C 212.404,249.209 212.737,250.209 212.5,251.5C 211.167,251.5 209.833,251.5 208.5,251.5C 208.813,255.042 208.479,258.375 207.5,261.5C 207.5,257.833 207.5,254.167 207.5,250.5C 209.483,250.843 210.817,250.176 211.5,248.5 Z"/></g>
<g><path style="opacity:0.005" fill="#eae7e7" d="M 226.5,249.5 C 228.654,251.158 228.987,253.158 227.5,255.5C 226.833,255.5 226.5,255.167 226.5,254.5C 226.5,253.833 226.5,253.167 226.5,252.5C 226.5,251.5 226.5,250.5 226.5,249.5 Z"/></g>
<g><path style="opacity:0.004" fill="#fdfefd" d="M 111.5,252.5 C 112.833,253.167 112.833,253.167 111.5,252.5 Z"/></g>
<g><path style="opacity:0.008" fill="#fcfdfc" d="M 201.5,253.5 C 201.897,252.475 202.563,252.308 203.5,253C 202.906,253.464 202.239,253.631 201.5,253.5 Z"/></g>
<g><path style="opacity:0.009" fill="#fcfcfc" d="M 209.5,252.5 C 212.001,252.511 212.168,253.178 210,254.5C 209.536,253.906 209.369,253.239 209.5,252.5 Z"/></g>
<g><path style="opacity:0.006" fill="#e7e3e3" d="M 42.5,249.5 C 42.3253,251.621 42.6586,253.621 43.5,255.5C 42.8174,256.644 43.1507,256.644 44.5,255.5C 46.1947,256.011 47.8614,256.678 49.5,257.5C 49.3764,258.107 49.0431,258.44 48.5,258.5C 46.1667,258.5 43.8333,258.5 41.5,258.5C 40.3792,255.409 40.7125,252.409 42.5,249.5 Z"/></g>
<g><path style="opacity:0.463" fill="#c1b7b7" d="M 80.5,252.5 C 81.1667,252.5 81.8333,252.5 82.5,252.5C 81.8333,255.167 81.1667,255.167 80.5,252.5 Z"/></g>
<g><path style="opacity:0.007" fill="#fdfdfd" d="M 53.5,259.5 C 54.29,258.391 54.79,257.058 55,255.5C 55.7175,254.549 56.5509,254.383 57.5,255C 56.7109,257.365 55.5442,259.532 54,261.5C 53.5357,260.906 53.369,260.239 53.5,259.5 Z"/></g>
<g><path style="opacity:1" fill="#725a58" d="M 98.5,251.5 C 99.2216,251.918 99.7216,252.584 100,253.5C 100.383,252.944 100.883,252.611 101.5,252.5C 100.009,253.913 99.3423,255.413 99.5,257C 100.094,257.464 100.761,257.631 101.5,257.5C 101.158,258.338 100.492,258.672 99.5,258.5C 98.7784,258.082 98.2784,257.416 98,256.5C 97.8019,258.382 97.3019,260.048 96.5,261.5C 96.3359,258.813 96.5026,256.146 97,253.5C 97.3333,253.833 97.6667,254.167 98,254.5C 98.4828,253.552 98.6495,252.552 98.5,251.5 Z"/></g>
<g><path style="opacity:0.004" fill="#fdfefd" d="M 113.5,255.5 C 112.833,254.167 112.833,254.167 113.5,255.5 Z"/></g>
<g><path style="opacity:1" fill="#523637" d="M 143.5,248.5 C 142.817,250.176 141.483,250.843 139.5,250.5C 139.232,252.099 139.566,253.432 140.5,254.5C 142.099,254.768 143.432,254.434 144.5,253.5C 144.5,253.167 144.5,252.833 144.5,252.5C 145.167,251.5 145.833,250.5 146.5,249.5C 149.262,252.148 148.929,254.481 145.5,256.5C 143.5,256.5 141.5,256.5 139.5,256.5C 139.5,258.167 139.5,259.833 139.5,261.5C 138.811,262.774 137.977,262.774 137,261.5C 136.333,257.167 136.333,252.833 137,248.5C 139.274,247.189 141.44,247.189 143.5,248.5 Z M 143.5,252.5 C 142.391,252.557 141.391,252.89 140.5,253.5C 141.053,251.448 142.053,251.115 143.5,252.5 Z"/></g>
<g><path style="opacity:0.009" fill="#ece8e8" d="M 143.5,252.5 C 143.5,253.167 143.833,253.5 144.5,253.5C 143.432,254.434 142.099,254.768 140.5,254.5C 140.5,254.167 140.5,253.833 140.5,253.5C 141.391,252.89 142.391,252.557 143.5,252.5 Z"/></g>
<g><path style="opacity:1" fill="#583c3d" d="M 178.5,257.5 C 178.768,259.099 178.434,260.432 177.5,261.5C 177.167,261.5 176.833,261.5 176.5,261.5C 176.672,260.508 176.338,259.842 175.5,259.5C 173.585,259.216 171.919,259.549 170.5,260.5C 169.833,260.5 169.5,260.833 169.5,261.5C 168.833,262.833 168.167,262.833 167.5,261.5C 167.5,260.833 167.5,260.167 167.5,259.5C 168.16,255.687 169.326,252.021 171,248.5C 172.667,247.167 174.333,247.167 176,248.5C 176.849,251.521 177.683,254.521 178.5,257.5 Z M 172.5,253.5 C 173.167,253.833 173.833,254.167 174.5,254.5C 173.012,257.186 172.345,256.853 172.5,253.5 Z"/></g>
<g><path style="opacity:0.188" fill="#b6a6a6" d="M 174.5,254.5 C 173.833,254.167 173.167,253.833 172.5,253.5C 173.301,251.207 173.968,251.54 174.5,254.5 Z"/></g>
<g><path style="opacity:0.465" fill="#9b8a8a" d="M 79.5,256.5 C 78.8333,258.167 78.1667,259.833 77.5,261.5C 77.1924,259.076 77.5258,256.743 78.5,254.5C 79.2975,254.957 79.6309,255.624 79.5,256.5 Z"/></g>
<g><path style="opacity:0.005" fill="#fdfdfd" d="M 113.5,255.5 C 113.833,255.5 114.167,255.5 114.5,255.5C 114.167,259.5 113.833,259.5 113.5,255.5 Z"/></g>
<g><path style="opacity:0.004" fill="#fdfefd" d="M 158.5,255.5 C 159.525,255.897 159.692,256.563 159,257.5C 158.536,256.906 158.369,256.239 158.5,255.5 Z"/></g>
<g><path style="opacity:0.486" fill="#917f7f" d="M 201.5,251.5 C 201.5,251.167 201.5,250.833 201.5,250.5C 202.833,250.5 204.167,250.5 205.5,250.5C 205.5,254.167 205.5,257.833 205.5,261.5C 204.521,258.375 204.187,255.042 204.5,251.5C 203.5,251.5 202.5,251.5 201.5,251.5 Z"/></g>
<g><path style="opacity:1" fill="#4a2c2e" d="M 211.5,248.5 C 210.817,250.176 209.483,250.843 207.5,250.5C 207.5,254.167 207.5,257.833 207.5,261.5C 206.833,262.833 206.167,262.833 205.5,261.5C 205.5,257.833 205.5,254.167 205.5,250.5C 204.167,250.5 202.833,250.5 201.5,250.5C 201.5,249.833 201.5,249.167 201.5,248.5C 204.833,247.167 208.167,247.167 211.5,248.5 Z"/></g>
<g><path style="opacity:0.004" fill="#fdfefd" d="M 216.5,256.5 C 215.833,255.167 215.833,255.167 216.5,256.5 Z"/></g>
<g><path style="opacity:1" fill="#5a3d3d" d="M 49.5,248.5 C 48.4097,249.857 47.0764,250.857 45.5,251.5C 47.22,252.864 49.22,253.864 51.5,254.5C 52.9501,255.85 53.6168,257.516 53.5,259.5C 50.2058,262.658 46.5392,263.158 42.5,261C 41.7476,260.329 41.4142,259.496 41.5,258.5C 43.8333,258.5 46.1667,258.5 48.5,258.5C 49.0431,258.44 49.3764,258.107 49.5,257.5C 47.8614,256.678 46.1947,256.011 44.5,255.5C 44.1667,255.5 43.8333,255.5 43.5,255.5C 42.6586,253.621 42.3253,251.621 42.5,249.5C 44.6548,247.466 46.9882,247.133 49.5,248.5 Z"/></g>
<g><path style="opacity:0.653" fill="#766764" d="M 104.5,261.5 C 103.833,259.833 103.167,258.167 102.5,256.5C 102.461,255.244 102.961,254.244 104,253.5C 104.497,256.146 104.664,258.813 104.5,261.5 Z"/></g>
<g><path style="opacity:0.004" fill="#fdfefd" d="M 181.5,258.5 C 180.475,258.103 180.308,257.437 181,256.5C 181.464,257.094 181.631,257.761 181.5,258.5 Z"/></g>
<g><path style="opacity:1" fill="#472829" d="M 187.5,248.5 C 187.427,250.027 188.094,251.027 189.5,251.5C 189.427,253.027 190.094,254.027 191.5,254.5C 192.833,253.833 192.833,253.167 191.5,252.5C 191.833,251.833 192.167,251.167 192.5,250.5C 192.5,249.833 192.5,249.167 192.5,248.5C 194.179,248.285 195.179,248.952 195.5,250.5C 196.353,253.828 196.686,256.995 196.5,260C 194.62,263.076 192.954,262.909 191.5,259.5C 191.167,258.5 190.5,257.833 189.5,257.5C 189.5,257.167 189.5,256.833 189.5,256.5C 189.217,255.711 188.717,255.044 188,254.5C 187.503,256.81 187.337,259.143 187.5,261.5C 186.5,261.5 185.5,261.5 184.5,261.5C 184.334,257.154 184.501,252.821 185,248.5C 185.977,247.226 186.811,247.226 187.5,248.5 Z M 189.5,249.5 C 190.609,249.557 191.609,249.89 192.5,250.5C 192.167,251.167 191.833,251.833 191.5,252.5C 190.833,252.167 190.167,251.833 189.5,251.5C 189.5,250.833 189.5,250.167 189.5,249.5 Z"/></g>
<g><path style="opacity:0.447" fill="#a39695" d="M 189.5,251.5 C 190.167,251.833 190.833,252.167 191.5,252.5C 191.5,253.167 191.5,253.833 191.5,254.5C 190.094,254.027 189.427,253.027 189.5,251.5 Z"/></g>
<g><path style="opacity:0.533" fill="#9a8887" d="M 187.5,248.5 C 188.167,248.833 188.833,249.167 189.5,249.5C 189.5,250.167 189.5,250.833 189.5,251.5C 188.094,251.027 187.427,250.027 187.5,248.5 Z"/></g>
<g><path style="opacity:1" fill="#553b3b" d="M 61.5,259.5 C 60.5,259.833 59.8333,260.5 59.5,261.5C 58.2566,262.737 57.2566,262.404 56.5,260.5C 57.9017,256.461 59.4017,252.461 61,248.5C 62.4936,247.253 63.9936,247.253 65.5,248.5C 67.1667,252.5 68.8333,256.5 70.5,260.5C 68.7997,263.027 67.133,262.86 65.5,260C 64.2068,259.51 62.8734,259.343 61.5,259.5 Z M 62.5,254.5 C 63.1667,254.5 63.8333,254.5 64.5,254.5C 64.2144,256.933 63.5477,256.933 62.5,254.5 Z"/></g>
<g><path style="opacity:0.212" fill="#ccc2c2" d="M 64.5,254.5 C 63.8333,254.5 63.1667,254.5 62.5,254.5C 62.7373,250.711 63.4039,250.711 64.5,254.5 Z"/></g>
<g><path style="opacity:0.689" fill="#8b7778" d="M 145.5,256.5 C 144.081,257.451 142.415,257.784 140.5,257.5C 140.768,259.099 140.434,260.432 139.5,261.5C 139.5,259.833 139.5,258.167 139.5,256.5C 141.5,256.5 143.5,256.5 145.5,256.5 Z"/></g>
<g><path style="opacity:1" fill="#543636" d="M 156.5,258.5 C 158.844,258.94 160.844,259.94 162.5,261.5C 162.158,262.338 161.492,262.672 160.5,262.5C 160.158,261.662 159.492,261.328 158.5,261.5C 156.833,261.5 155.167,261.5 153.5,261.5C 152.353,257.354 152.186,253.02 153,248.5C 154.011,247.663 155.178,247.33 156.5,247.5C 156.5,251.167 156.5,254.833 156.5,258.5 Z"/></g>
<g><path style="opacity:0.008" fill="#eeecec" d="M 167.5,259.5 C 167.5,260.167 167.5,260.833 167.5,261.5C 166.603,260.402 165.77,260.402 165,261.5C 164.219,260.056 164.386,258.723 165.5,257.5C 166.696,257.846 166.696,258.346 165.5,259C 166.094,259.464 166.761,259.631 167.5,259.5 Z"/></g>
<g><path style="opacity:0.059" fill="#e1dbdb" d="M 221.5,256.5 C 222.675,256.281 223.675,256.614 224.5,257.5C 224.376,258.107 224.043,258.44 223.5,258.5C 222.833,257.833 222.167,257.167 221.5,256.5 Z"/></g>
<g><path style="opacity:0.004" fill="#fdfefd" d="M 71.5,258.5 C 72.8333,259.167 72.8333,259.167 71.5,258.5 Z"/></g>
<g><path style="opacity:0.007" fill="#f7f6f6" d="M 83.5,256.5 C 83.5,258.167 83.5,259.833 83.5,261.5C 80.4331,261.879 79.4331,260.879 80.5,258.5C 81.7777,258.218 82.7777,257.551 83.5,256.5 Z"/></g>
<g><path style="opacity:0.006" fill="#f6f4f4" d="M 102.5,256.5 C 102.5,257.833 102.5,259.167 102.5,260.5C 100.821,260.715 99.8212,260.048 99.5,258.5C 100.492,258.672 101.158,258.338 101.5,257.5C 101.5,256.833 101.833,256.5 102.5,256.5 Z"/></g>
<g><path style="opacity:0.007" fill="#fdfdfd" d="M 141.5,259.5 C 142.251,258.427 143.251,258.26 144.5,259C 143.552,259.483 142.552,259.649 141.5,259.5 Z"/></g>
<g><path style="opacity:0.51" fill="#a79a99" d="M 156.5,258.5 C 158.833,258.5 161.167,258.5 163.5,258.5C 163.737,259.791 163.404,260.791 162.5,261.5C 160.844,259.94 158.844,258.94 156.5,258.5 Z"/></g>
<g><path style="opacity:0.004" fill="#fdfefd" d="M 181.5,258.5 C 182.525,258.897 182.692,259.563 182,260.5C 181.536,259.906 181.369,259.239 181.5,258.5 Z"/></g>
<g><path style="opacity:0.009" fill="#e9e5e5" d="M 189.5,256.5 C 188.493,259.143 188.493,259.477 189.5,257.5C 190.5,257.833 191.167,258.5 191.5,259.5C 190.842,260.398 190.176,261.398 189.5,262.5C 188.817,262.137 188.15,261.804 187.5,261.5C 187.337,259.143 187.503,256.81 188,254.5C 188.717,255.044 189.217,255.711 189.5,256.5 Z"/></g>
<g><path style="opacity:0.006" fill="#f2f0f0" d="M 61.5,259.5 C 62.3984,260.158 63.3984,260.824 64.5,261.5C 64.3333,261.833 64.1667,262.167 64,262.5C 62.6439,261.62 61.1439,261.286 59.5,261.5C 59.8333,260.5 60.5,259.833 61.5,259.5 Z"/></g>
<g><path style="opacity:1" fill="#6e5756" d="M 216.5,256.5 C 217.5,256.5 218.5,256.5 219.5,256.5C 220.287,258.104 221.62,258.771 223.5,258.5C 222.306,259.272 221.306,260.272 220.5,261.5C 220.167,261.5 219.833,261.5 219.5,261.5C 216.623,260.73 215.623,259.063 216.5,256.5 Z"/></g>
<g><path style="opacity:1" fill="#422425" d="M 222.5,253.5 C 223.959,253.433 225.292,253.766 226.5,254.5C 226.5,255.167 226.833,255.5 227.5,255.5C 228.665,258.505 227.665,260.505 224.5,261.5C 223.167,261.5 221.833,261.5 220.5,261.5C 221.306,260.272 222.306,259.272 223.5,258.5C 224.043,258.44 224.376,258.107 224.5,257.5C 223.675,256.614 222.675,256.281 221.5,256.5C 220.833,256.5 220.167,256.5 219.5,256.5C 218.833,255.833 218.167,255.167 217.5,254.5C 217.343,253.127 217.51,251.793 218,250.5C 218.589,252.863 220.089,253.863 222.5,253.5 Z"/></g>
<g><path style="opacity:0.008" fill="#f3f2f2" d="M 175.5,259.5 C 176.338,259.842 176.672,260.508 176.5,261.5C 174.167,262.833 171.833,262.833 169.5,261.5C 169.5,260.833 169.833,260.5 170.5,260.5C 172.415,260.784 174.081,260.451 175.5,259.5 Z"/></g>
<g><path style="opacity:0.984" fill="#978a89" d="M 178.5,257.5 C 180.895,259.249 180.895,260.916 178.5,262.5C 177.893,262.376 177.56,262.043 177.5,261.5C 178.434,260.432 178.768,259.099 178.5,257.5 Z"/></g>
<g><path style="opacity:0.007" fill="#fdfdfd" d="M 153.5,261.5 C 155.167,261.5 156.833,261.5 158.5,261.5C 158.842,262.338 159.508,262.672 160.5,262.5C 159.726,263.147 158.726,263.48 157.5,263.5C 155.645,263.66 154.312,262.993 153.5,261.5 Z"/></g>
<g><path style="opacity:0.114" fill="#edeaea" d="M 219.5,261.5 C 219.833,261.5 220.167,261.5 220.5,261.5C 221.833,261.5 223.167,261.5 224.5,261.5C 225.463,262.363 225.463,263.03 224.5,263.5C 222.664,262.972 220.997,262.306 219.5,261.5 Z"/></g>
</svg>
